<svg xmlns="http://www.w3.org/2000/svg" width="300" height="200" viewBox="89.74700164794922 58.999996185302734 87.11100006103516 37.5200080871582"><desc>
   Schematic generated with KiCad and modified in svgviewer.dev by MaxClerkwell for Electro-Noise Experiment at Ruhr-Universität Bochum.
  </desc><g style="fill:#000;fill-opacity:1;stroke:#000;stroke-opacity:1;stroke-linecap:round;stroke-linejoin:round"><path style="stroke:#840000;stroke-width:.254;stroke-opacity:1;stroke-linecap:round;stroke-linejoin:round;fill:none" d="M123.19 68.58h-2.54m2.54 2.54h-2.54l1.27-2.54Z"/><path style="stroke:#840000;stroke-width:.1524;stroke-opacity:1;stroke-linecap:round;stroke-linejoin:round;fill:none" d="M121.92 71.12v-2.54"/></g><path d="M121.92 68.58v-2.54m0 5.08v2.54" style="fill:none;stroke:#840000;stroke-width:.1524;stroke-opacity:1;stroke-linecap:round;stroke-linejoin:round"/><g style="fill:none;stroke:#006464;stroke-width:.1524;stroke-opacity:1;stroke-linecap:round;stroke-linejoin:round"><g class="stroked-text"><desc>
        D1
      </desc><path d="M124.874 69.16v-1.27m0 0h.302m0 0 .181.06m0 0 .121.12m0 0 .06.122m.001 0 .06.242m.001 0v.181m0 0-.061.242m0 0-.06.121m-.001 0-.12.121m-.001 0-.181.06m0 .001h-.302m1.935 0h-.726m.363 0v-1.27m0 0-.121.18m0 0-.121.122m0 0-.12.06"/></g><g class="stroked-text"><desc>
        PIN-3CD
      </desc><path d="M124.874 71.7v-1.27m0 0h.483m0 0 .121.06m0 0 .06.06m.001 0 .06.121m.001 0v.182m0 0-.061.12m0 .001-.06.06m-.001 0-.12.06m-.001.001h-.483m1.27.605v-1.27m.604 1.27v-1.27m0 0 .726 1.27m0 0v-1.27m.605.786h.968m.483-.786h.786m0 0-.423.483m0 0h.182m0 0 .12.06m.001.001.06.06m0 0 .06.121m0 0v.302m0 .001-.06.12m0 .001-.06.06m0 0-.121.06m0 .001h-.363m0 0-.121-.061m-.001 0-.06-.06m2.056 0-.06.06m0 0-.181.06m0 .001h-.121m0 0-.182-.061m0 0-.12-.121m-.001 0-.06-.121m-.001 0-.06-.242m0 0v-.181m0 0 .06-.242m0 0 .061-.121m0-.001.121-.12m0 0 .182-.06m0 0h.12m.001 0 .181.06m0 0 .06.06m.544 1.15v-1.27m0 0h.303m0 0 .181.06m.001 0 .12.12m.001 0 .06.122m0 0 .06.242m0 0v.181m0 0-.06.242m0 0-.06.121m0 0-.121.121m0 0-.182.06m0 .001h-.302"/></g><path style="stroke:#840000;stroke-width:.1524;stroke-opacity:1;stroke-linecap:round;stroke-linejoin:round;fill:none" d="M91.44 83.82v1.27h1.27l-1.27 1.27-1.27-1.27h1.27"/></g><g class="stroked-text" style="fill:none;stroke:#006464;stroke-width:.1524;stroke-opacity:1;stroke-linecap:round;stroke-linejoin:round"><desc>
      GND
    </desc><path d="m90.472 88.27-.12-.06m-.001 0h-.181m0 0-.181.06m0 0-.121.121m0 0-.06.12m-.001.001-.06.242m0 0v.181m0 0 .06.242m0 0 .06.121m.001 0 .12.121m.001.001.181.06m0 0h.12m0 0 .182-.06m0 0 .06-.061m.001 0v-.424m0 0h-.242m.786.545v-1.27m0 0 .726 1.27m0 0v-1.27m.605 1.27v-1.27m0 0h.302m0 0 .181.06m0 0 .121.121m0 0 .06.12m.001.001.06.242m0 0v.181m0 0-.06.242m0 0-.06.121m-.001 0-.12.121m-.001.001-.181.06m0 0h-.302"/></g><g style="fill:#840000;fill-opacity:1;stroke:#840000;stroke-width:.1524;stroke-opacity:1;stroke-linecap:round;stroke-linejoin:round"><rect x="99.314" y="84.074" width="4.572" height=".254" rx="0"/><rect x="99.314" y="85.852" width="4.572" height=".254" rx="0"/><rect x="99.314" y="87.63" width="4.572" height=".254" rx="0"/><path style="stroke:#840000;stroke-width:.254;stroke-opacity:1;stroke-linecap:round;stroke-linejoin:round;fill:none" d="M99.822 82.804h1.016"/></g><g style="fill:#840000;fill-opacity:1;stroke:#840000;stroke-width:.1524;stroke-opacity:1;stroke-linecap:round;stroke-linejoin:round"><rect x="100.076" y="84.836" width="3.048" height=".508" rx="0"/><rect x="100.076" y="86.614" width="3.048" height=".508" rx="0"/><rect x="100.076" y="88.392" width="3.048" height=".508" rx="0"/><path style="stroke:#840000;stroke-width:.254;stroke-opacity:1;stroke-linecap:round;stroke-linejoin:round;fill:none" d="M100.33 82.296v1.016"/><path style="stroke:#840000;stroke-width:.1524;stroke-opacity:1;stroke-linecap:round;stroke-linejoin:round;fill:none" d="M101.6 84.074V82.55m-2.54 6.604 4.826-6.604m0 0-.762.254m.762-.254v.762"/></g><path d="M101.6 82.55v-2.54m0 8.89v2.54" style="fill:none;stroke:#840000;stroke-width:.1524;stroke-opacity:1;stroke-linecap:round;stroke-linejoin:round"/><g style="fill:none;stroke:#006464;stroke-width:.1524;stroke-opacity:1;stroke-linecap:round;stroke-linejoin:round"><g class="stroked-text"><desc>
        V2
      </desc><path d="m105.642 83.7.423 1.27m0 0 .424-1.27m.363.122.06-.06m0-.001.121-.06m0-.001h.302m.001 0 .12.061m0 0 .06.06m.001.001.06.12m0 .001v.12m0 .001-.06.181m0 0-.726.726m0-.001h.786"/></g><path style="stroke:#840000;stroke-width:.1524;stroke-opacity:1;stroke-linecap:round;stroke-linejoin:round;fill:none" d="m121.158 63.5.762-1.27m0 0 .762 1.27m-.762 1.27v-2.54"/></g><g class="stroked-text" style="fill:none;stroke:#006464;stroke-width:.1524;stroke-opacity:1;stroke-linecap:round;stroke-linejoin:round"><desc>
      +12V
    </desc><path d="M119.682 59.786h.968m-.484.484v-.968m1.754.968h-.726m.363 0V59m0 0-.12.181m-.001 0-.12.12m-.001.001-.12.06m1.209-.242.06-.06m0 0 .121-.06m0 0h.303m0 0 .12.06m.001 0 .06.06m0 0 .06.121m.001 0v.121m0 0-.061.182m0 0-.726.726m0 0h.786m.363-1.27.424 1.27m0 0 .423-1.27"/></g><g style="fill:#840000;fill-opacity:1;stroke:#840000;stroke-width:.1524;stroke-opacity:1;stroke-linecap:round;stroke-linejoin:round"><rect x="99.314" y="70.104" width="4.572" height=".254" rx="0"/><rect x="99.314" y="71.882" width="4.572" height=".254" rx="0"/><rect x="99.314" y="73.66" width="4.572" height=".254" rx="0"/><path style="stroke:#840000;stroke-width:.254;stroke-opacity:1;stroke-linecap:round;stroke-linejoin:round;fill:none" d="M99.822 68.834h1.016"/></g><g style="fill:#840000;fill-opacity:1;stroke:#840000;stroke-width:.1524;stroke-opacity:1;stroke-linecap:round;stroke-linejoin:round"><rect x="100.076" y="70.866" width="3.048" height=".508" rx="0"/><rect x="100.076" y="72.644" width="3.048" height=".508" rx="0"/><rect x="100.076" y="74.422" width="3.048" height=".508" rx="0"/><path style="stroke:#840000;stroke-width:.254;stroke-opacity:1;stroke-linecap:round;stroke-linejoin:round;fill:none" d="M100.33 68.326v1.016"/><path style="stroke:#840000;stroke-width:.1524;stroke-opacity:1;stroke-linecap:round;stroke-linejoin:round;fill:none" d="M101.6 70.104V68.58m-2.54 6.604 4.826-6.604m0 0-.762.254m.762-.254v.762"/></g><path d="M101.6 68.58v-2.54m0 8.89v2.54" style="fill:none;stroke:#840000;stroke-width:.1524;stroke-opacity:1;stroke-linecap:round;stroke-linejoin:round"/><g style="fill:none;stroke:#006464;stroke-width:.1524;stroke-opacity:1;stroke-linecap:round;stroke-linejoin:round"><g class="stroked-text"><desc>
        V1
      </desc><path d="m105.642 69.73.423 1.27m0 0 .424-1.27m1.088 1.27h-.725m.363 0v-1.27m0 0-.121.182m0 0-.121.121m0 0-.121.06"/></g><path style="stroke:#840000;stroke-width:.1524;stroke-opacity:1;stroke-linecap:round;stroke-linejoin:round;fill:none" d="m109.982 76.962 3.556 3.556"/></g><g style="fill:none;stroke:#840000;stroke-width:.1524;stroke-opacity:1;stroke-linecap:round;stroke-linejoin:round"><circle cx="111.76" cy="78.74" r="2.54"/><path style="stroke:#840000;stroke-width:.1524;stroke-opacity:1;stroke-linecap:round;stroke-linejoin:round;fill:none" d="m113.538 76.962-3.556 3.556"/><path d="M111.76 76.2v-2.54m0 7.62v2.54"/></g><g style="fill:none;stroke:#006464;stroke-width:.1524;stroke-opacity:1;stroke-linecap:round;stroke-linejoin:round"><g class="stroked-text"><desc>
        LA1
      </desc><path d="M115.826 78.05h-.604m0 0v-1.27m.968.907h.604m-.726.363.424-1.27m0 0 .423 1.27m1.089 0h-.726m.362 0v-1.27m0 0-.12.181m0 0-.121.12m0 .001-.121.06"/></g><g class="stroked-text"><desc>
        Lamp
      </desc><path d="M115.826 80.59h-.604m0 0v-1.27m1.572 1.27v-.666m0 0-.06-.12m-.001-.001-.12-.06m0 0h-.242m-.001 0-.12.06m.544.727-.121.06m0 0h-.302m-.001 0-.12-.06m0 0-.06-.122m0 0v-.12m0-.001.06-.12m0-.001.12-.06m0 0h.303m0 0 .12-.06m.606.544v-.847m0 .121.06-.06m.001-.001.12-.06m0 0h.181m.001 0 .12.06m0 0 .06.121m.001 0v.665m0-.665.06-.12m0-.001.121-.06m0 0h.182m0 0 .12.06m.001 0 .06.121m0 0v.665m.605-.846v1.27m0-1.21.12-.06m.001 0h.242m0 0 .12.06m.001 0 .06.06m0 .001.06.12m.001.001v.363m0 0-.06.12m-.001.001-.06.06m0 .001-.121.06m0 0h-.242m0 0-.121-.06"/></g></g><rect x="139.7" y="67.564" width="5.08" height="2.032" rx="0" style="fill:none;stroke:#840000;stroke-width:.254;stroke-opacity:1;stroke-linecap:round;stroke-linejoin:round"/><path d="M139.7 68.58h-1.27m6.35 0h1.27" style="fill:none;stroke:#840000;stroke-width:.1524;stroke-opacity:1;stroke-linecap:round;stroke-linejoin:round"/><g style="fill:none;stroke:#006464;stroke-width:.1524;stroke-opacity:1;stroke-linecap:round;stroke-linejoin:round"><g class="stroked-text"><desc>
        Rf
      </desc><path d="m142.27 62.81-.423-.605m-.303.605v-1.27m0 0h.484m0 0 .121.06m.001 0 .06.06m0 0 .06.121m0 0v.182m0 0-.06.12m0 .001-.06.06m0 0-.122.06m0 .001h-.484m1.089-.242h.484m-.303.847v-1.09m0 0 .06-.12m.001 0 .12-.06m.001 0h.12"/></g><g class="stroked-text"><desc>
        10k
      </desc><path d="M141.484 65.35h-.726m.363 0v-1.27m0 0-.12.18m-.001 0-.12.122m0 0-.122.06m1.512-.362h.121m0 0 .121.06m0 0 .06.06m.001 0 .06.121m0 0 .06.242m.001 0v.303m0 0-.061.242m0 0-.06.12m0 .001-.061.06m0 0-.12.06m-.001.001h-.12m-.001 0-.12-.061m0 0-.061-.06m0 0-.06-.121m-.001 0-.06-.242m0 0v-.303m0 0 .06-.242m0 0 .06-.12m.001-.001.06-.06m.001 0 .12-.06m.968 1.27v-1.27m.121.786.362.483m.001-.846-.484.484"/></g><path style="fill:#ffffc2;fill-opacity:1;stroke:none;fill-rule:evenodd" d="m147.32 77.47-10.16 5.08V72.39Z" stroke="none"/><path style="stroke:#840000;stroke-width:.254;stroke-opacity:1;stroke-linecap:round;stroke-linejoin:round;fill:none" d="m147.32 77.47-10.16 5.08V72.39Z"/></g><path d="M137.16 80.01h-2.54" style="fill:none;stroke:#840000;stroke-width:.1524;stroke-opacity:1;stroke-linecap:round;stroke-linejoin:round"/><g class="stroked-text" style="fill:none;stroke:#006464;stroke-width:.1524;stroke-opacity:1;stroke-linecap:round;stroke-linejoin:round"><desc>
      +
    </desc><path d="M137.69 80.106h.967m-.484.484v-.968"/></g><g class="stroked-text" style="fill:none;stroke:#a90000;stroke-width:.1524;stroke-opacity:1;stroke-linecap:round;stroke-linejoin:round"><desc>
      3
    </desc><path d="M135.467 78.323h.786m0 0-.423.483m0 0h.181m0 0 .12.06m.001.001.06.06m0 0 .06.121m.001 0v.303m0-.001-.06.122m-.001 0-.06.06m0 0-.121.06m0 .001h-.363m0 0-.12-.06m-.001-.001-.06-.06"/></g><path d="M137.16 74.93h-2.54" style="fill:none;stroke:#840000;stroke-width:.1524;stroke-opacity:1;stroke-linecap:round;stroke-linejoin:round"/><g class="stroked-text" style="fill:none;stroke:#006464;stroke-width:.1524;stroke-opacity:1;stroke-linecap:round;stroke-linejoin:round"><desc>
      -
    </desc><path d="M137.69 75.026h.967"/></g><g class="stroked-text" style="fill:none;stroke:#a90000;stroke-width:.1524;stroke-opacity:1;stroke-linecap:round;stroke-linejoin:round"><desc>
      2
    </desc><path d="m135.527 73.364.06-.061m.001 0 .12-.06m.001 0h.302m0 0 .12.06m.001 0 .06.06m0 .001.06.12m.001 0v.121m0 0-.06.182m-.001 0-.725.725m0 .001h.786"/></g><path d="M147.32 77.47h2.54" style="fill:none;stroke:#840000;stroke-width:.1524;stroke-opacity:1;stroke-linecap:round;stroke-linejoin:round"/><g class="stroked-text" style="fill:none;stroke:#a90000;stroke-width:.1524;stroke-opacity:1;stroke-linecap:round;stroke-linejoin:round"><desc>
      1
    </desc><path d="M148.953 77.053h-.726m.363 0v-1.27m0 0-.12.181m0 0-.122.12m0 .001-.12.06"/></g><g style="fill:none;stroke:#006464;stroke-width:.1524;stroke-opacity:1;stroke-linecap:round;stroke-linejoin:round"><g class="stroked-text"><desc>
        U1A
      </desc><path d="M140.728 86.94v1.028m0 0 .06.12m.001.001.06.06m0 0 .12.06m.001.001h.242m0 0 .12-.061m.001 0 .06-.06m0 0 .06-.121m.001 0v-1.029m1.27 1.271h-.726m.362 0v-1.27m0 0-.12.18m0 0-.121.122m0 0-.12.06m1.209.545h.604m-.725.363.423-1.27m0 0 .423 1.27"/></g><g class="stroked-text"><desc>
        OPA134
      </desc><path d="M139.125 84.4h.242m0 0 .121.06m0 0 .121.12m.001 0 .06.243m0 0v.423m0 0-.06.242m0 0-.122.121m0 0-.12.06m-.001.001h-.242m0 0-.12-.061m0 0-.121-.121m0 0-.06-.242m-.001 0v-.423m0 0 .06-.242m.001-.001.12-.12m.001 0 .12-.06m1.089 1.27V84.4m0 0h.484m0 0 .12.06m.001 0 .06.06m.001 0 .06.121m0 0v.182m0 0-.06.12m0 .001-.061.06m0 0-.121.06m0 .001h-.484m1.21.242h.604m-.725.363.423-1.27m0 0 .423 1.27m1.089 0h-.726m.363 0V84.4m0 0-.12.18m-.001 0-.12.122m-.001 0-.12.06m1.148-.362h.786m0 0-.423.483m0 0h.181m.001 0 .12.06m0 .001.06.06m.001 0 .06.121m0 0v.302m0 .001-.06.12m0 .001-.06.06m-.001 0-.12.06m0 .001h-.363m0 0-.121-.061m0 0-.06-.06m1.874-.726v.846m-.302-1.33-.303.907m0 0h.786"/></g><path style="stroke:#840000;stroke-width:.1524;stroke-opacity:1;stroke-linecap:round;stroke-linejoin:round;fill:none" d="M132.08 88.9v1.27h1.27l-1.27 1.27-1.27-1.27h1.27"/></g><g class="stroked-text" style="fill:none;stroke:#006464;stroke-width:.1524;stroke-opacity:1;stroke-linecap:round;stroke-linejoin:round"><desc>
      GND
    </desc><path d="m131.112 93.35-.12-.06m-.001 0h-.181m0 0-.181.06m0 0-.121.121m0 0-.06.12m-.001.001-.06.242m0 0v.181m0 0 .06.242m0 0 .06.121m.001 0 .12.121m.001.001.181.06m0 0h.12m0 0 .182-.06m0 0 .06-.061m.001 0v-.424m0 0h-.242m.786.545v-1.27m0 0 .726 1.27m0 0v-1.27m.605 1.27v-1.27m0 0h.302m0 0 .181.06m0 0 .121.121m0 0 .06.12m.001.001.06.242m0 0v.181m0 0-.06.242m0 0-.06.121m-.001 0-.12.121m-.001.001-.181.06m0 0h-.302"/></g><g style="fill:none;stroke:#840000;stroke-width:.1524;stroke-opacity:1;stroke-linecap:round;stroke-linejoin:round"><g class="stroked-text"><desc>
        To next gain stage
      </desc><path d="M156.907 76.87h.726m-.363 1.27v-1.27m.968 1.27-.121-.06m0 0-.06-.06m-.001 0-.06-.122m0 0v-.362m0 0 .06-.121m0 0 .06-.06m.001-.001.12-.06m.001 0h.181m.001 0 .12.06m0 0 .06.06m0 .001.061.12m0 .001v.362m0 0-.06.121m-.001.001-.06.06m0 0-.12.06m0 0h-.182m1.935-.846v.846m0-.725.06-.06m.001-.001.12-.06m.001 0h.18m.001 0 .12.06m.001 0 .06.121m0 0v.665m1.089-.06-.121.06m0 0h-.242m0 0-.121-.06m0 0-.06-.121m0 0v-.484m0 0 .06-.12m0-.001.121-.06m0 0h.242m0 0 .12.06m.001 0 .06.121m0 0v.121m0 0-.604.121m1.028.423.665-.846m-.665 0 .665.846m.302-.846h.484m-.302-.424v1.089m0 0 .06.12m.001.001.12.06m0 0h.121m1.935-.846v1.028m0 0-.06.12m0 .001-.06.06m-.001 0-.12.06m-.001.001h-.181m0 0-.121-.06m.544-.424-.12.06m-.001 0h-.242m.001 0-.121-.06m0 0-.061-.06m0 0-.06-.122m0 0v-.362m0 0 .06-.121m0 0 .06-.06m.001-.001.12-.06m.001 0h.241m0 0 .121.06m1.149.786v-.665m0 0-.06-.12m0-.001-.121-.06m0 0h-.242m0 0-.121.06m.544.726-.12.06m-.001 0h-.302m0 0-.121-.06m0 0-.06-.121m-.001 0v-.121m0 0 .061-.121m0 0 .121-.06m0 0h.302m0 0 .121-.061m.605.544v-.846m0-.424-.06.06m0 0 .06.061m0 0 .06-.06m0-.001-.06-.06m0 0v.121m.605.303v.846m0-.725.06-.06m0-.001.121-.06m0 0h.182m0 0 .12.06m.001 0 .06.121m.001 0v.665m1.511-.06.12.06m.001 0h.242m0 0 .12-.06m.001 0 .06-.121m0 0v-.06m0-.001-.06-.12m0 0-.121-.061m0 0h-.182m0 0-.12-.06m-.001 0-.06-.121m0 0v-.06m0-.001.06-.12m0-.001.121-.06m0 0h.182m0 0 .12.06m.424-.06h.484m-.302-.424v1.089m0 0 .06.12m0 .001.121.06m0 0h.12m.969 0v-.665m0 0-.061-.12m0-.001-.12-.06m-.001 0h-.242m0 0-.12.06m.544.726-.121.06m0 0h-.303m0 0-.12-.06m-.001 0-.06-.121m0 0v-.121m0 0 .06-.121m0 0 .121-.06m0 0h.303m0 0 .12-.061m1.15-.302v1.028m0 0-.061.12m0 .001-.06.06m0 0-.121.06m0 .001h-.182m0 0-.12-.06m.544-.424-.121.06m0 0h-.242m0 0-.121-.06m0 0-.06-.06m-.001 0-.06-.122m0 0v-.362m0 0 .06-.121m0 0 .06-.06m.001-.001.12-.06m.001 0h.242m0 0 .12.06m1.089.726-.12.06m-.001 0h-.242m0 0-.12-.06m-.001 0-.06-.121m0 0v-.484m0 0 .06-.12m0-.001.121-.06m0 0h.242m0 0 .121.06m0 0 .06.121m.001 0v.121m0 0-.605.121"/></g><path style="stroke:#840000;stroke-width:.1524;stroke-opacity:1;stroke-linecap:round;stroke-linejoin:round;fill:none" d="M156.21 77.47v1.27h19.537l1.111-1.27-1.11-1.27H156.21Z"/></g><g class="stroked-text" style="fill:none;stroke:#0000c2;stroke-width:.254;stroke-opacity:1;stroke-linecap:round;stroke-linejoin:round"><desc>
      ipd
    </desc><path d="M127.47 76.857v-.847m0-.423-.061.06m0 0 .06.06m.001.001.06-.06m0-.001-.06-.06m0 0v.12m.604.303v1.27m0-1.21.121-.06m0 0h.242m0 0 .121.06m0 0 .06.061m.001 0 .06.121m0 0v.363m0 0-.06.12m0 .001-.061.06m0 0-.12.06m-.001.001h-.242m0 0-.12-.06m1.693.06v-1.27m0 1.209-.121.06m0 .001h-.242m0 0-.121-.06m0-.001-.06-.06m-.001 0-.06-.121m0 0v-.363m0 0 .06-.121m0 0 .06-.06m.001-.001.12-.06m.001 0h.242m0 0 .12.06"/></g><path d="m130.81 76.2 1.27-1.27m-1.27 0h1.27" style="fill:none;stroke:#0000c2;stroke-width:.1524;stroke-opacity:1;stroke-linecap:round;stroke-linejoin:round"/><path d="m130.81 76.2 1.27-1.27" style="fill:none;stroke:#0000c2;stroke-width:.3556;stroke-opacity:1;stroke-linecap:round;stroke-linejoin:round"/><path d="m130.81 76.2 1.27-1.27m-1.27 1.27 1.27-1.27" style="fill:none;stroke:#0000c2;stroke-width:.1524;stroke-opacity:1;stroke-linecap:round;stroke-linejoin:round"/><path d="m130.81 73.66 1.27 1.27" style="fill:none;stroke:#0000c2;stroke-width:.3048;stroke-opacity:1;stroke-linecap:round;stroke-linejoin:round"/><path d="m130.81 76.2 1.27-1.27" style="fill:none;stroke:#0000c2;stroke-width:.1524;stroke-opacity:1;stroke-linecap:round;stroke-linejoin:round"/><path d="m130.81 76.2 1.27-1.27" style="fill:none;stroke:#0000c2;stroke-width:.3048;stroke-opacity:1;stroke-linecap:round;stroke-linejoin:round"/><path d="M130.81 74.93h1.27" style="fill:none;stroke:#0000c2;stroke-width:.1524;stroke-opacity:1;stroke-linecap:round;stroke-linejoin:round"/><path d="m132.08 74.93-1.27-1.27" style="fill:none;stroke:#0000c2;stroke-width:.3556;stroke-opacity:1;stroke-linecap:round;stroke-linejoin:round"/><path d="m130.81 76.2 1.27-1.27m-1.27 1.27 1.27-1.27m-1.27 0h1.27" style="fill:none;stroke:#0000c2;stroke-width:.1524;stroke-opacity:1;stroke-linecap:round;stroke-linejoin:round"/><path d="M127 74.93h5.08" style="fill:none;stroke:#0000c2;stroke-width:.3556;stroke-opacity:1;stroke-linecap:round;stroke-linejoin:round"/><path d="M149.86 77.47h2.54m0-8.89v8.89m-30.48-2.54h12.7m-12.7-10.16v1.27m-30.48 12.7h10.16m-10.16 5.08v-5.08m10.16 12.7v5.08m33.02-27.94v6.35m-33.02 3.81v1.27m36.83-11.43h-3.81m11.43 0h6.35m-20.32 11.43v8.89M101.6 78.74v-1.27m10.16 19.05H101.6m33.02-16.51h-2.54m-10.16-5.08v-1.27m30.48 3.81h3.81m-44.45-17.78H101.6m10.16 0v13.97M101.6 59.69v6.35m10.16 17.78v12.7" style="fill:none;stroke:#009600;stroke-width:.1524;stroke-opacity:1;stroke-linecap:round;stroke-linejoin:round"/><g style="fill:#009600;fill-opacity:1;stroke:#009600;stroke-width:.1524;stroke-opacity:1;stroke-linecap:round;stroke-linejoin:round"><circle cx="152.4" cy="77.47" r=".457"/><circle cx="134.62" cy="74.93" r=".457"/><circle cx="101.6" cy="78.74" r=".457"/></g></svg>