<?xml version="1.0" encoding="us-ascii" standalone="no"?><svg xmlns="http://www.w3.org/2000/svg" xmlns:xlink="http://www.w3.org/1999/xlink" contentStyleType="text/css" height="451px" preserveAspectRatio="none" style="width:367px;height:451px;background:#FFFFFF;" version="1.1" viewBox="0 0 367 451" width="367px" zoomAndPan="magnify"><defs/><g><!--class A--><g id="elem_A"><rect codeLine="1" fill="#F1F1F1" height="64.2969" id="A" rx="2.5" ry="2.5" style="stroke:#181818;stroke-width:0.5;" width="99" x="261.5" y="379.89"/><ellipse cx="302.6" cy="395.89" fill="#ADD1B2" rx="11" ry="11" style="stroke:#181818;stroke-width:1.0;"/><path d="M305.5688,401.5306 Q304.9906,401.8275 304.35,401.9681 Q303.7094,402.1244 303.0063,402.1244 Q300.5063,402.1244 299.1781,400.4838 Q297.8656,398.8275 297.8656,395.7025 Q297.8656,392.5775 299.1781,390.9213 Q300.5063,389.265 303.0063,389.265 Q303.7094,389.265 304.35,389.4213 Q305.0063,389.5775 305.5688,389.8744 L305.5688,392.5931 Q304.9438,392.015 304.35,391.7494 Q303.7563,391.4681 303.1313,391.4681 Q301.7875,391.4681 301.1,392.5463 Q300.4125,393.6088 300.4125,395.7025 Q300.4125,397.7963 301.1,398.8744 Q301.7875,399.9369 303.1313,399.9369 Q303.7563,399.9369 304.35,399.6713 Q304.9438,399.39 305.5688,398.8119 L305.5688,401.5306 Z " fill="#000000"/><text fill="#000000" font-family="sans-serif" font-size="14" lengthAdjust="spacing" textLength="9" x="322.4" y="400.7367">A</text><line style="stroke:#181818;stroke-width:0.5;" x1="262.5" x2="359.5" y1="411.89" y2="411.89"/><line style="stroke:#181818;stroke-width:0.5;" x1="262.5" x2="359.5" y1="419.89" y2="419.89"/><ellipse cx="272.5" cy="433.5384" fill="#84BE84" rx="3" ry="3" style="stroke:#038048;stroke-width:1.0;"/><text fill="#000000" font-family="sans-serif" font-size="14" lengthAdjust="spacing" textLength="73" x="281.5" y="436.8851">methodA()</text></g><!--class B--><g id="elem_B"><rect codeLine="5" fill="#F1F1F1" height="64.2969" id="B" rx="2.5" ry="2.5" style="stroke:#181818;stroke-width:0.5;" width="100" x="126" y="379.89"/><ellipse cx="167.1" cy="395.89" fill="#ADD1B2" rx="11" ry="11" style="stroke:#181818;stroke-width:1.0;"/><path d="M170.0688,401.5306 Q169.4906,401.8275 168.85,401.9681 Q168.2094,402.1244 167.5063,402.1244 Q165.0063,402.1244 163.6781,400.4838 Q162.3656,398.8275 162.3656,395.7025 Q162.3656,392.5775 163.6781,390.9213 Q165.0063,389.265 167.5063,389.265 Q168.2094,389.265 168.85,389.4213 Q169.5063,389.5775 170.0688,389.8744 L170.0688,392.5931 Q169.4438,392.015 168.85,391.7494 Q168.2563,391.4681 167.6313,391.4681 Q166.2875,391.4681 165.6,392.5463 Q164.9125,393.6088 164.9125,395.7025 Q164.9125,397.7963 165.6,398.8744 Q166.2875,399.9369 167.6313,399.9369 Q168.2563,399.9369 168.85,399.6713 Q169.4438,399.39 170.0688,398.8119 L170.0688,401.5306 Z " fill="#000000"/><text fill="#000000" font-family="sans-serif" font-size="14" lengthAdjust="spacing" textLength="10" x="186.9" y="400.7367">B</text><line style="stroke:#181818;stroke-width:0.5;" x1="127" x2="225" y1="411.89" y2="411.89"/><line style="stroke:#181818;stroke-width:0.5;" x1="127" x2="225" y1="419.89" y2="419.89"/><ellipse cx="137" cy="433.5384" fill="#84BE84" rx="3" ry="3" style="stroke:#038048;stroke-width:1.0;"/><text fill="#000000" font-family="sans-serif" font-size="14" lengthAdjust="spacing" textLength="74" x="146" y="436.8851">methodB()</text></g><!--class C--><g id="elem_C"><rect codeLine="9" fill="#F1F1F1" height="64.2969" id="C" rx="2.5" ry="2.5" style="stroke:#181818;stroke-width:0.5;" width="100" x="7" y="255.6"/><ellipse cx="48.1" cy="271.6" fill="#ADD1B2" rx="11" ry="11" style="stroke:#181818;stroke-width:1.0;"/><path d="M51.0688,277.2406 Q50.4906,277.5375 49.85,277.6781 Q49.2094,277.8344 48.5063,277.8344 Q46.0063,277.8344 44.6781,276.1937 Q43.3656,274.5375 43.3656,271.4125 Q43.3656,268.2875 44.6781,266.6312 Q46.0063,264.975 48.5063,264.975 Q49.2094,264.975 49.85,265.1312 Q50.5063,265.2875 51.0688,265.5844 L51.0688,268.3031 Q50.4438,267.725 49.85,267.4594 Q49.2563,267.1781 48.6313,267.1781 Q47.2875,267.1781 46.6,268.2562 Q45.9125,269.3187 45.9125,271.4125 Q45.9125,273.5062 46.6,274.5844 Q47.2875,275.6469 48.6313,275.6469 Q49.2563,275.6469 49.85,275.3812 Q50.4438,275.1 51.0688,274.5219 L51.0688,277.2406 Z " fill="#000000"/><text fill="#000000" font-family="sans-serif" font-size="14" lengthAdjust="spacing" textLength="10" x="67.9" y="276.4467">C</text><line style="stroke:#181818;stroke-width:0.5;" x1="8" x2="106" y1="287.6" y2="287.6"/><line style="stroke:#181818;stroke-width:0.5;" x1="8" x2="106" y1="295.6" y2="295.6"/><ellipse cx="18" cy="309.2484" fill="#84BE84" rx="3" ry="3" style="stroke:#038048;stroke-width:1.0;"/><text fill="#000000" font-family="sans-serif" font-size="14" lengthAdjust="spacing" textLength="74" x="27" y="312.5951">methodC()</text></g><!--class D--><g id="elem_D"><rect codeLine="13" fill="#F1F1F1" height="64.2969" id="D" rx="2.5" ry="2.5" style="stroke:#181818;stroke-width:0.5;" width="101" x="42.5" y="131.3"/><ellipse cx="83.6" cy="147.3" fill="#ADD1B2" rx="11" ry="11" style="stroke:#181818;stroke-width:1.0;"/><path d="M86.5688,152.9406 Q85.9906,153.2375 85.35,153.3781 Q84.7094,153.5344 84.0063,153.5344 Q81.5063,153.5344 80.1781,151.8938 Q78.8656,150.2375 78.8656,147.1125 Q78.8656,143.9875 80.1781,142.3313 Q81.5063,140.675 84.0063,140.675 Q84.7094,140.675 85.35,140.8313 Q86.0063,140.9875 86.5688,141.2844 L86.5688,144.0031 Q85.9438,143.425 85.35,143.1594 Q84.7563,142.8781 84.1313,142.8781 Q82.7875,142.8781 82.1,143.9563 Q81.4125,145.0188 81.4125,147.1125 Q81.4125,149.2063 82.1,150.2844 Q82.7875,151.3469 84.1313,151.3469 Q84.7563,151.3469 85.35,151.0813 Q85.9438,150.8 86.5688,150.2219 L86.5688,152.9406 Z " fill="#000000"/><text fill="#000000" font-family="sans-serif" font-size="14" lengthAdjust="spacing" textLength="11" x="103.4" y="152.1467">D</text><line style="stroke:#181818;stroke-width:0.5;" x1="43.5" x2="142.5" y1="163.3" y2="163.3"/><line style="stroke:#181818;stroke-width:0.5;" x1="43.5" x2="142.5" y1="171.3" y2="171.3"/><ellipse cx="53.5" cy="184.9484" fill="#84BE84" rx="3" ry="3" style="stroke:#038048;stroke-width:1.0;"/><text fill="#000000" font-family="sans-serif" font-size="14" lengthAdjust="spacing" textLength="75" x="62.5" y="188.2951">methodD()</text></g><!--class X--><g id="elem_X"><rect codeLine="17" fill="#F1F1F1" height="64.2969" id="X" rx="2.5" ry="2.5" style="stroke:#181818;stroke-width:0.5;" width="99" x="229.5" y="255.6"/><ellipse cx="270.6" cy="271.6" fill="#ADD1B2" rx="11" ry="11" style="stroke:#181818;stroke-width:1.0;"/><path d="M273.5688,277.2406 Q272.9906,277.5375 272.35,277.6781 Q271.7094,277.8344 271.0063,277.8344 Q268.5063,277.8344 267.1781,276.1937 Q265.8656,274.5375 265.8656,271.4125 Q265.8656,268.2875 267.1781,266.6312 Q268.5063,264.975 271.0063,264.975 Q271.7094,264.975 272.35,265.1312 Q273.0063,265.2875 273.5688,265.5844 L273.5688,268.3031 Q272.9438,267.725 272.35,267.4594 Q271.7563,267.1781 271.1313,267.1781 Q269.7875,267.1781 269.1,268.2562 Q268.4125,269.3187 268.4125,271.4125 Q268.4125,273.5062 269.1,274.5844 Q269.7875,275.6469 271.1313,275.6469 Q271.7563,275.6469 272.35,275.3812 Q272.9438,275.1 273.5688,274.5219 L273.5688,277.2406 Z " fill="#000000"/><text fill="#000000" font-family="sans-serif" font-size="14" lengthAdjust="spacing" textLength="9" x="290.4" y="276.4467">X</text><line style="stroke:#181818;stroke-width:0.5;" x1="230.5" x2="327.5" y1="287.6" y2="287.6"/><line style="stroke:#181818;stroke-width:0.5;" x1="230.5" x2="327.5" y1="295.6" y2="295.6"/><ellipse cx="240.5" cy="309.2484" fill="#84BE84" rx="3" ry="3" style="stroke:#038048;stroke-width:1.0;"/><text fill="#000000" font-family="sans-serif" font-size="14" lengthAdjust="spacing" textLength="73" x="249.5" y="312.5951">methodX()</text></g><!--class Y--><g id="elem_Y"><rect codeLine="21" fill="#F1F1F1" height="64.2969" id="Y" rx="2.5" ry="2.5" style="stroke:#181818;stroke-width:0.5;" width="99" x="178.5" y="131.3"/><ellipse cx="219.6" cy="147.3" fill="#ADD1B2" rx="11" ry="11" style="stroke:#181818;stroke-width:1.0;"/><path d="M222.5688,152.9406 Q221.9906,153.2375 221.35,153.3781 Q220.7094,153.5344 220.0063,153.5344 Q217.5063,153.5344 216.1781,151.8938 Q214.8656,150.2375 214.8656,147.1125 Q214.8656,143.9875 216.1781,142.3313 Q217.5063,140.675 220.0063,140.675 Q220.7094,140.675 221.35,140.8313 Q222.0063,140.9875 222.5688,141.2844 L222.5688,144.0031 Q221.9438,143.425 221.35,143.1594 Q220.7563,142.8781 220.1313,142.8781 Q218.7875,142.8781 218.1,143.9563 Q217.4125,145.0188 217.4125,147.1125 Q217.4125,149.2063 218.1,150.2844 Q218.7875,151.3469 220.1313,151.3469 Q220.7563,151.3469 221.35,151.0813 Q221.9438,150.8 222.5688,150.2219 L222.5688,152.9406 Z " fill="#000000"/><text fill="#000000" font-family="sans-serif" font-size="14" lengthAdjust="spacing" textLength="9" x="239.4" y="152.1467">Y</text><line style="stroke:#181818;stroke-width:0.5;" x1="179.5" x2="276.5" y1="163.3" y2="163.3"/><line style="stroke:#181818;stroke-width:0.5;" x1="179.5" x2="276.5" y1="171.3" y2="171.3"/><ellipse cx="189.5" cy="184.9484" fill="#84BE84" rx="3" ry="3" style="stroke:#038048;stroke-width:1.0;"/><text fill="#000000" font-family="sans-serif" font-size="14" lengthAdjust="spacing" textLength="73" x="198.5" y="188.2951">methodY()</text></g><!--class Z--><g id="elem_Z"><rect codeLine="25" fill="#F1F1F1" height="64.2969" id="Z" rx="2.5" ry="2.5" style="stroke:#181818;stroke-width:0.5;" width="100" x="43" y="7"/><ellipse cx="84.1" cy="23" fill="#ADD1B2" rx="11" ry="11" style="stroke:#181818;stroke-width:1.0;"/><path d="M87.0688,28.6406 Q86.4906,28.9375 85.85,29.0781 Q85.2094,29.2344 84.5063,29.2344 Q82.0063,29.2344 80.6781,27.5938 Q79.3656,25.9375 79.3656,22.8125 Q79.3656,19.6875 80.6781,18.0313 Q82.0063,16.375 84.5063,16.375 Q85.2094,16.375 85.85,16.5313 Q86.5063,16.6875 87.0688,16.9844 L87.0688,19.7031 Q86.4438,19.125 85.85,18.8594 Q85.2563,18.5781 84.6313,18.5781 Q83.2875,18.5781 82.6,19.6563 Q81.9125,20.7188 81.9125,22.8125 Q81.9125,24.9063 82.6,25.9844 Q83.2875,27.0469 84.6313,27.0469 Q85.2563,27.0469 85.85,26.7813 Q86.4438,26.5 87.0688,25.9219 L87.0688,28.6406 Z " fill="#000000"/><text fill="#000000" font-family="sans-serif" font-size="14" lengthAdjust="spacing" textLength="10" x="103.9" y="27.8467">Z</text><line style="stroke:#181818;stroke-width:0.5;" x1="44" x2="142" y1="39" y2="39"/><line style="stroke:#181818;stroke-width:0.5;" x1="44" x2="142" y1="47" y2="47"/><ellipse cx="54" cy="60.6484" fill="#84BE84" rx="3" ry="3" style="stroke:#038048;stroke-width:1.0;"/><text fill="#000000" font-family="sans-serif" font-size="14" lengthAdjust="spacing" textLength="74" x="63" y="63.9951">methodZ()</text></g><!--link X to A--><g id="link_X_A"><path codeLine="29" d="M287.24,320.24 C292.02,338.5 293.447,343.998 298.227,362.238 " fill="none" id="X-to-A" style="stroke:#181818;stroke-width:1.0;"/><polygon fill="none" points="302.79,379.65,304.031,360.717,292.423,363.759,302.79,379.65" style="stroke:#181818;stroke-width:1.0;"/></g><!--link X to B--><g id="link_X_B"><path codeLine="30" d="M252.47,320.24 C237.1,338.5 229.3944,347.6416 214.0344,365.8816 " fill="none" id="X-to-B" style="stroke:#181818;stroke-width:1.0;"/><polygon fill="none" points="202.44,379.65,218.6239,369.7464,209.445,362.0168,202.44,379.65" style="stroke:#181818;stroke-width:1.0;"/></g><!--link Y to B--><g id="link_Y_B"><path codeLine="31" d="M221.36,195.93 C211.37,243.32 196.284,314.8573 186.314,362.1373 " fill="none" id="Y-to-B" style="stroke:#181818;stroke-width:1.0;"/><polygon fill="none" points="182.6,379.75,192.1849,363.3753,180.4431,360.8993,182.6,379.75" style="stroke:#181818;stroke-width:1.0;"/></g><!--link Y to C--><g id="link_Y_C"><path codeLine="32" d="M183.96,195.94 C158.53,214.13 141.2833,226.4723 115.8233,244.6723 " fill="none" id="Y-to-C" style="stroke:#181818;stroke-width:1.0;"/><polygon fill="none" points="101.18,255.14,119.3126,249.5534,112.3341,239.7912,101.18,255.14" style="stroke:#181818;stroke-width:1.0;"/></g><!--link Z to C--><g id="link_Z_C"><path codeLine="33" d="M61.42,71.78 C47.36,88.1 32.34,109.19 25,131.3 C11.11,173.14 19.8552,206.9136 33.7952,238.7236 " fill="none" id="Z-to-C" style="stroke:#181818;stroke-width:1.0;"/><polygon fill="none" points="41.02,255.21,39.2907,236.3153,28.2997,241.1318,41.02,255.21" style="stroke:#181818;stroke-width:1.0;"/></g><!--link Z to D--><g id="link_Z_D"><path codeLine="34" d="M93,71.65 C93,89.9 93,94.82 93,113.06 " fill="none" id="Z-to-D" style="stroke:#181818;stroke-width:1.0;"/><polygon fill="none" points="93,131.06,99,113.06,87,113.06,93,131.06" style="stroke:#181818;stroke-width:1.0;"/></g><!--link Y to X--><g id="link_Y_X"><path codeLine="35" d="M241.13,195.94 C248.75,214.2 251.3692,220.5079 258.9792,238.7479 " fill="none" id="Y-to-X" style="stroke:#181818;stroke-width:1.0;"/><polygon fill="none" points="265.91,255.36,264.5165,236.4376,253.4418,241.0581,265.91,255.36" style="stroke:#181818;stroke-width:1.0;"/></g><!--link Z to Y--><g id="link_Z_Y"><path codeLine="36" d="M127.77,71.65 C147.92,89.9 159.8813,100.7337 180.0113,118.9737 " fill="none" id="Z-to-Y" style="stroke:#181818;stroke-width:1.0;"/><polygon fill="none" points="193.35,131.06,184.0401,114.5274,175.9825,123.4199,193.35,131.06" style="stroke:#181818;stroke-width:1.0;"/></g><!--SRC=[NSax2e0m44NHVbOnfIBPWf3F8cRIIHGi58lOgNiNb857kiizPPjgPSyNCG_xSgx7xBkU7gBoIK09A14beYIKX28eWg8eYf9HyY_2pjqZUuj0saIat4Go4Zlw0W00]--></g></svg>