<svg xmlns="http://www.w3.org/2000/svg" xmlns:xlink="http://www.w3.org/1999/xlink" contentStyleType="text/css" data-diagram-type="CLASS" height="451px" preserveAspectRatio="none" style="width:370px;height:451px;background:#FFFFFF;" version="1.1" viewBox="0 0 370 451" width="370px" zoomAndPan="magnify"><defs/><g><!--class A--><g class="entity" data-entity="A" data-source-line="1" data-uid="ent0002" id="entity_A"><rect fill="#F1F1F1" height="64.2969" rx="2.5" ry="2.5" style="stroke:#181818;stroke-width:0.5;" width="100.5664" x="263.1" y="379.89"/><ellipse cx="304.6452" cy="395.89" fill="#ADD1B2" rx="11" ry="11" style="stroke:#181818;stroke-width:1;"/><path d="M307.6139,401.5306 Q307.0358,401.8275 306.3952,401.9681 Q305.7545,402.1244 305.0514,402.1244 Q302.5514,402.1244 301.2233,400.4838 Q299.9108,398.8275 299.9108,395.7025 Q299.9108,392.5775 301.2233,390.9213 Q302.5514,389.265 305.0514,389.265 Q305.7545,389.265 306.3952,389.4213 Q307.0514,389.5775 307.6139,389.8744 L307.6139,392.5931 Q306.9889,392.015 306.3952,391.7494 Q305.8014,391.4681 305.1764,391.4681 Q303.8327,391.4681 303.1452,392.5463 Q302.4577,393.6088 302.4577,395.7025 Q302.4577,397.7963 303.1452,398.8744 Q303.8327,399.9369 305.1764,399.9369 Q305.8014,399.9369 306.3952,399.6713 Q306.9889,399.39 307.6139,398.8119 L307.6139,401.5306 Z " fill="#000000"/><text fill="#000000" font-family="sans-serif" font-size="14" lengthAdjust="spacing" textLength="9.5771" x="324.5441" y="400.7367">A</text><line style="stroke:#181818;stroke-width:0.5;" x1="264.1" x2="362.6664" y1="411.89" y2="411.89"/><line style="stroke:#181818;stroke-width:0.5;" x1="264.1" x2="362.6664" y1="419.89" y2="419.89"/><ellipse cx="274.1" cy="433.5384" fill="#84BE84" rx="3" ry="3" style="stroke:#038048;stroke-width:1;"/><text fill="#000000" font-family="sans-serif" font-size="14" lengthAdjust="spacing" textLength="74.5664" x="283.1" y="436.8851">methodA()</text></g><!--class B--><g class="entity" data-entity="B" data-source-line="5" data-uid="ent0003" id="entity_B"><rect fill="#F1F1F1" height="64.2969" rx="2.5" ry="2.5" style="stroke:#181818;stroke-width:0.5;" width="100.5938" x="127.09" y="379.89"/><ellipse cx="168.6352" cy="395.89" fill="#ADD1B2" rx="11" ry="11" style="stroke:#181818;stroke-width:1;"/><path d="M171.6039,401.5306 Q171.0258,401.8275 170.3852,401.9681 Q169.7445,402.1244 169.0414,402.1244 Q166.5414,402.1244 165.2133,400.4838 Q163.9008,398.8275 163.9008,395.7025 Q163.9008,392.5775 165.2133,390.9213 Q166.5414,389.265 169.0414,389.265 Q169.7445,389.265 170.3852,389.4213 Q171.0414,389.5775 171.6039,389.8744 L171.6039,392.5931 Q170.9789,392.015 170.3852,391.7494 Q169.7914,391.4681 169.1664,391.4681 Q167.8227,391.4681 167.1352,392.5463 Q166.4477,393.6088 166.4477,395.7025 Q166.4477,397.7963 167.1352,398.8744 Q167.8227,399.9369 169.1664,399.9369 Q169.7914,399.9369 170.3852,399.6713 Q170.9789,399.39 171.6039,398.8119 L171.6039,401.5306 Z " fill="#000000"/><text fill="#000000" font-family="sans-serif" font-size="14" lengthAdjust="spacing" textLength="9.6045" x="188.5341" y="400.7367">B</text><line style="stroke:#181818;stroke-width:0.5;" x1="128.09" x2="226.6838" y1="411.89" y2="411.89"/><line style="stroke:#181818;stroke-width:0.5;" x1="128.09" x2="226.6838" y1="419.89" y2="419.89"/><ellipse cx="138.09" cy="433.5384" fill="#84BE84" rx="3" ry="3" style="stroke:#038048;stroke-width:1;"/><text fill="#000000" font-family="sans-serif" font-size="14" lengthAdjust="spacing" textLength="74.5938" x="147.09" y="436.8851">methodB()</text></g><!--class C--><g class="entity" data-entity="C" data-source-line="9" data-uid="ent0004" id="entity_C"><rect fill="#F1F1F1" height="64.2969" rx="2.5" ry="2.5" style="stroke:#181818;stroke-width:0.5;" width="100.7646" x="7" y="255.6"/><ellipse cx="48.5452" cy="271.6" fill="#ADD1B2" rx="11" ry="11" style="stroke:#181818;stroke-width:1;"/><path d="M51.5139,277.2406 Q50.9358,277.5375 50.2952,277.6781 Q49.6545,277.8344 48.9514,277.8344 Q46.4514,277.8344 45.1233,276.1937 Q43.8108,274.5375 43.8108,271.4125 Q43.8108,268.2875 45.1233,266.6312 Q46.4514,264.975 48.9514,264.975 Q49.6545,264.975 50.2952,265.1312 Q50.9514,265.2875 51.5139,265.5844 L51.5139,268.3031 Q50.8889,267.725 50.2952,267.4594 Q49.7014,267.1781 49.0764,267.1781 Q47.7327,267.1781 47.0452,268.2562 Q46.3577,269.3187 46.3577,271.4125 Q46.3577,273.5062 47.0452,274.5844 Q47.7327,275.6469 49.0764,275.6469 Q49.7014,275.6469 50.2952,275.3812 Q50.8889,275.1 51.5139,274.5219 L51.5139,277.2406 Z " fill="#000000"/><text fill="#000000" font-family="sans-serif" font-size="14" lengthAdjust="spacing" textLength="9.7754" x="68.4441" y="276.4467">C</text><line style="stroke:#181818;stroke-width:0.5;" x1="8" x2="106.7646" y1="287.6" y2="287.6"/><line style="stroke:#181818;stroke-width:0.5;" x1="8" x2="106.7646" y1="295.6" y2="295.6"/><ellipse cx="18" cy="309.2484" fill="#84BE84" rx="3" ry="3" style="stroke:#038048;stroke-width:1;"/><text fill="#000000" font-family="sans-serif" font-size="14" lengthAdjust="spacing" textLength="74.7646" x="27" y="312.5951">methodC()</text></g><!--class D--><g class="entity" data-entity="D" data-source-line="13" data-uid="ent0005" id="entity_D"><rect fill="#F1F1F1" height="64.2969" rx="2.5" ry="2.5" style="stroke:#181818;stroke-width:0.5;" width="101.7695" x="42.5" y="131.3"/><ellipse cx="84.0452" cy="147.3" fill="#ADD1B2" rx="11" ry="11" style="stroke:#181818;stroke-width:1;"/><path d="M87.0139,152.9406 Q86.4358,153.2375 85.7952,153.3781 Q85.1545,153.5344 84.4514,153.5344 Q81.9514,153.5344 80.6233,151.8938 Q79.3108,150.2375 79.3108,147.1125 Q79.3108,143.9875 80.6233,142.3313 Q81.9514,140.675 84.4514,140.675 Q85.1545,140.675 85.7952,140.8313 Q86.4514,140.9875 87.0139,141.2844 L87.0139,144.0031 Q86.3889,143.425 85.7952,143.1594 Q85.2014,142.8781 84.5764,142.8781 Q83.2327,142.8781 82.5452,143.9563 Q81.8577,145.0188 81.8577,147.1125 Q81.8577,149.2063 82.5452,150.2844 Q83.2327,151.3469 84.5764,151.3469 Q85.2014,151.3469 85.7952,151.0813 Q86.3889,150.8 87.0139,150.2219 L87.0139,152.9406 Z " fill="#000000"/><text fill="#000000" font-family="sans-serif" font-size="14" lengthAdjust="spacing" textLength="10.7803" x="103.9441" y="152.1467">D</text><line style="stroke:#181818;stroke-width:0.5;" x1="43.5" x2="143.2695" y1="163.3" y2="163.3"/><line style="stroke:#181818;stroke-width:0.5;" x1="43.5" x2="143.2695" y1="171.3" y2="171.3"/><ellipse cx="53.5" cy="184.9484" fill="#84BE84" rx="3" ry="3" style="stroke:#038048;stroke-width:1;"/><text fill="#000000" font-family="sans-serif" font-size="14" lengthAdjust="spacing" textLength="75.7695" x="62.5" y="188.2951">methodD()</text></g><!--class X--><g class="entity" data-entity="X" data-source-line="17" data-uid="ent0006" id="entity_X"><rect fill="#F1F1F1" height="64.2969" rx="2.5" ry="2.5" style="stroke:#181818;stroke-width:0.5;" width="100.5801" x="230.09" y="255.6"/><ellipse cx="271.6352" cy="271.6" fill="#ADD1B2" rx="11" ry="11" style="stroke:#181818;stroke-width:1;"/><path d="M274.6039,277.2406 Q274.0258,277.5375 273.3852,277.6781 Q272.7445,277.8344 272.0414,277.8344 Q269.5414,277.8344 268.2133,276.1937 Q266.9008,274.5375 266.9008,271.4125 Q266.9008,268.2875 268.2133,266.6312 Q269.5414,264.975 272.0414,264.975 Q272.7445,264.975 273.3852,265.1312 Q274.0414,265.2875 274.6039,265.5844 L274.6039,268.3031 Q273.9789,267.725 273.3852,267.4594 Q272.7914,267.1781 272.1664,267.1781 Q270.8227,267.1781 270.1352,268.2562 Q269.4477,269.3187 269.4477,271.4125 Q269.4477,273.5062 270.1352,274.5844 Q270.8227,275.6469 272.1664,275.6469 Q272.7914,275.6469 273.3852,275.3812 Q273.9789,275.1 274.6039,274.5219 L274.6039,277.2406 Z " fill="#000000"/><text fill="#000000" font-family="sans-serif" font-size="14" lengthAdjust="spacing" textLength="9.5908" x="291.5341" y="276.4467">X</text><line style="stroke:#181818;stroke-width:0.5;" x1="231.09" x2="329.6701" y1="287.6" y2="287.6"/><line style="stroke:#181818;stroke-width:0.5;" x1="231.09" x2="329.6701" y1="295.6" y2="295.6"/><ellipse cx="241.09" cy="309.2484" fill="#84BE84" rx="3" ry="3" style="stroke:#038048;stroke-width:1;"/><text fill="#000000" font-family="sans-serif" font-size="14" lengthAdjust="spacing" textLength="74.5801" x="250.09" y="312.5951">methodX()</text></g><!--class Y--><g class="entity" data-entity="Y" data-source-line="21" data-uid="ent0007" id="entity_Y"><rect fill="#F1F1F1" height="64.2969" rx="2.5" ry="2.5" style="stroke:#181818;stroke-width:0.5;" width="99.541" x="179.61" y="131.3"/><ellipse cx="221.1552" cy="147.3" fill="#ADD1B2" rx="11" ry="11" style="stroke:#181818;stroke-width:1;"/><path d="M224.1239,152.9406 Q223.5458,153.2375 222.9052,153.3781 Q222.2645,153.5344 221.5614,153.5344 Q219.0614,153.5344 217.7333,151.8938 Q216.4208,150.2375 216.4208,147.1125 Q216.4208,143.9875 217.7333,142.3313 Q219.0614,140.675 221.5614,140.675 Q222.2645,140.675 222.9052,140.8313 Q223.5614,140.9875 224.1239,141.2844 L224.1239,144.0031 Q223.4989,143.425 222.9052,143.1594 Q222.3114,142.8781 221.6864,142.8781 Q220.3427,142.8781 219.6552,143.9563 Q218.9677,145.0188 218.9677,147.1125 Q218.9677,149.2063 219.6552,150.2844 Q220.3427,151.3469 221.6864,151.3469 Q222.3114,151.3469 222.9052,151.0813 Q223.4989,150.8 224.1239,150.2219 L224.1239,152.9406 Z " fill="#000000"/><text fill="#000000" font-family="sans-serif" font-size="14" lengthAdjust="spacing" textLength="8.5518" x="241.0541" y="152.1467">Y</text><line style="stroke:#181818;stroke-width:0.5;" x1="180.61" x2="278.151" y1="163.3" y2="163.3"/><line style="stroke:#181818;stroke-width:0.5;" x1="180.61" x2="278.151" y1="171.3" y2="171.3"/><ellipse cx="190.61" cy="184.9484" fill="#84BE84" rx="3" ry="3" style="stroke:#038048;stroke-width:1;"/><text fill="#000000" font-family="sans-serif" font-size="14" lengthAdjust="spacing" textLength="73.541" x="199.61" y="188.2951">methodY()</text></g><!--class Z--><g class="entity" data-entity="Z" data-source-line="25" data-uid="ent0008" id="entity_Z"><rect fill="#F1F1F1" height="64.2969" rx="2.5" ry="2.5" style="stroke:#181818;stroke-width:0.5;" width="100.5801" x="43.09" y="7"/><ellipse cx="84.6352" cy="23" fill="#ADD1B2" rx="11" ry="11" style="stroke:#181818;stroke-width:1;"/><path d="M87.6039,28.6406 Q87.0258,28.9375 86.3852,29.0781 Q85.7445,29.2344 85.0414,29.2344 Q82.5414,29.2344 81.2133,27.5938 Q79.9008,25.9375 79.9008,22.8125 Q79.9008,19.6875 81.2133,18.0313 Q82.5414,16.375 85.0414,16.375 Q85.7445,16.375 86.3852,16.5313 Q87.0414,16.6875 87.6039,16.9844 L87.6039,19.7031 Q86.9789,19.125 86.3852,18.8594 Q85.7914,18.5781 85.1664,18.5781 Q83.8227,18.5781 83.1352,19.6563 Q82.4477,20.7188 82.4477,22.8125 Q82.4477,24.9063 83.1352,25.9844 Q83.8227,27.0469 85.1664,27.0469 Q85.7914,27.0469 86.3852,26.7813 Q86.9789,26.5 87.6039,25.9219 L87.6039,28.6406 Z " fill="#000000"/><text fill="#000000" font-family="sans-serif" font-size="14" lengthAdjust="spacing" textLength="9.5908" x="104.5341" y="27.8467">Z</text><line style="stroke:#181818;stroke-width:0.5;" x1="44.09" x2="142.6701" y1="39" y2="39"/><line style="stroke:#181818;stroke-width:0.5;" x1="44.09" x2="142.6701" y1="47" y2="47"/><ellipse cx="54.09" cy="60.6484" fill="#84BE84" rx="3" ry="3" style="stroke:#038048;stroke-width:1;"/><text fill="#000000" font-family="sans-serif" font-size="14" lengthAdjust="spacing" textLength="74.5801" x="63.09" y="63.9951">methodZ()</text></g><!--link X to A--><g class="link" data-entity-1="X" data-entity-2="A" data-source-line="29" data-uid="lnk9" id="link_X_A"><path codeLine="29" d="M288.88,320.24 C293.81,338.5 295.3023,344.0311 300.2223,362.2711" fill="none" id="X-to-A" style="stroke:#181818;stroke-width:1;"/><polygon fill="none" points="304.91,379.65,306.0152,360.7086,294.4293,363.8337,304.91,379.65" style="stroke:#181818;stroke-width:1;"/></g><!--link X to B--><g class="link" data-entity-1="X" data-entity-2="B" data-source-line="30" data-uid="lnk10" id="link_X_B"><path codeLine="30" d="M253.86,320.24 C238.48,338.5 230.7744,347.6416 215.4144,365.8816" fill="none" id="X-to-B" style="stroke:#181818;stroke-width:1;"/><polygon fill="none" points="203.82,379.65,220.0039,369.7464,210.825,362.0168,203.82,379.65" style="stroke:#181818;stroke-width:1;"/></g><!--link Y to B--><g class="link" data-entity-1="Y" data-entity-2="B" data-source-line="31" data-uid="lnk11" id="link_Y_B"><path codeLine="31" d="M222.74,195.93 C212.75,243.32 197.664,314.8573 187.694,362.1373" fill="none" id="Y-to-B" style="stroke:#181818;stroke-width:1;"/><polygon fill="none" points="183.98,379.75,193.5649,363.3753,181.8231,360.8993,183.98,379.75" style="stroke:#181818;stroke-width:1;"/></g><!--link Y to C--><g class="link" data-entity-1="Y" data-entity-2="C" data-source-line="32" data-uid="lnk12" id="link_Y_C"><path codeLine="32" d="M185.09,195.94 C159.51,214.13 142.1004,226.5103 116.5004,244.7103" fill="none" id="Y-to-C" style="stroke:#181818;stroke-width:1;"/><polygon fill="none" points="101.83,255.14,119.977,249.6004,113.0238,239.8201,101.83,255.14" style="stroke:#181818;stroke-width:1;"/></g><!--link Z to C--><g class="link" data-entity-1="Z" data-entity-2="C" data-source-line="33" data-uid="lnk13" id="link_Z_C"><path codeLine="33" d="M61.8,71.78 C47.74,88.1 32.72,109.19 25.38,131.3 C11.49,173.14 20.2496,206.9117 34.1796,238.7217" fill="none" id="Z-to-C" style="stroke:#181818;stroke-width:1;"/><polygon fill="none" points="41.4,255.21,39.6757,236.3149,28.6834,241.1285,41.4,255.21" style="stroke:#181818;stroke-width:1;"/></g><!--link Z to D--><g class="link" data-entity-1="Z" data-entity-2="D" data-source-line="34" data-uid="lnk14" id="link_Z_D"><path codeLine="34" d="M93.38,71.65 C93.38,89.9 93.38,94.82 93.38,113.06" fill="none" id="Z-to-D" style="stroke:#181818;stroke-width:1;"/><polygon fill="none" points="93.38,131.06,99.38,113.06,87.38,113.06,93.38,131.06" style="stroke:#181818;stroke-width:1;"/></g><!--link Y to X--><g class="link" data-entity-1="Y" data-entity-2="X" data-source-line="35" data-uid="lnk15" id="link_Y_X"><path codeLine="35" d="M242.52,195.94 C250.13,214.2 252.7669,220.5046 260.3669,238.7446" fill="none" id="Y-to-X" style="stroke:#181818;stroke-width:1;"/><polygon fill="none" points="267.29,255.36,265.9054,236.4369,254.8285,241.0523,267.29,255.36" style="stroke:#181818;stroke-width:1;"/></g><!--link Z to Y--><g class="link" data-entity-1="Z" data-entity-2="Y" data-source-line="36" data-uid="lnk16" id="link_Z_Y"><path codeLine="36" d="M128.41,71.65 C148.71,89.9 160.8038,100.7863 181.0938,119.0263" fill="none" id="Z-to-Y" style="stroke:#181818;stroke-width:1;"/><polygon fill="none" points="194.48,131.06,185.1051,114.5642,177.0826,123.4884,194.48,131.06" style="stroke:#181818;stroke-width:1;"/></g><!--SRC=[NSax2e0m44NHVbOnfIBPWf3F8cRIIHGi58lOgNiNb857kiizPPjgPSyNCG_xSgx7xBkU7gBoIK09A14beYIKX28eWg8eYf9HyY_2pjqZUuj0saIat4Go4Zlw0W00]--></g></svg>