<svg version="1.1" xmlns="http://www.w3.org/2000/svg" xmlns:xlink="http://www.w3.org/1999/xlink" width="2736" height="1394"><defs/><g><rect fill="#FFFFFF" stroke="none" x="0" y="0" width="650" height="330"/><path fill="white" stroke="none" paint-order="stroke fill markers" d=" M 0 0 L 650 0 L 650 330 L 0 330 L 0 0 Z"/><path fill="white" stroke="black" paint-order="fill stroke markers" d=" M 140.5 120.5 L 150.5 120.5 L 150.5 120.5 A 20 20 0 0 1 150.5 160.5 L 140.5 160.5 L 140.5 120.5 Z" stroke-miterlimit="10" stroke-width="3" stroke-dasharray=""/><path fill="none" stroke="black" paint-order="fill stroke markers" d=" M 180 140 A 5 5 0 1 1 179.9999975000002 139.99500000083333" stroke-miterlimit="10" stroke-width="3" stroke-dasharray=""/><path fill="white" stroke="black" paint-order="fill stroke markers" d=" M 230.5 50.5 L 240.5 50.5 L 240.5 50.5 A 20 20 0 0 1 240.5 90.5 L 230.5 90.5 L 230.5 50.5 Z" stroke-miterlimit="10" stroke-width="3" stroke-dasharray=""/><path fill="none" stroke="black" paint-order="fill stroke markers" d=" M 270 70 A 5 5 0 1 1 269.99999750000023 69.99500000083333" stroke-miterlimit="10" stroke-width="3" stroke-dasharray=""/><path fill="white" stroke="black" paint-order="fill stroke markers" d=" M 230.5 190.5 L 240.5 190.5 L 240.5 190.5 A 20 20 0 0 1 240.5 230.5 L 230.5 230.5 L 230.5 190.5 Z" stroke-miterlimit="10" stroke-width="3" stroke-dasharray=""/><path fill="none" stroke="black" paint-order="fill stroke markers" d=" M 270 210 A 5 5 0 1 1 269.99999750000023 209.99500000083333" stroke-miterlimit="10" stroke-width="3" stroke-dasharray=""/><path fill="white" stroke="black" paint-order="fill stroke markers" d=" M 310.5 120.5 L 320.5 120.5 L 320.5 120.5 A 20 20 0 0 1 320.5 160.5 L 310.5 160.5 L 310.5 120.5 Z" stroke-miterlimit="10" stroke-width="3" stroke-dasharray=""/><path fill="none" stroke="black" paint-order="fill stroke markers" d=" M 350 140 A 5 5 0 1 1 349.99999750000023 139.99500000083333" stroke-miterlimit="10" stroke-width="3" stroke-dasharray=""/><path fill="white" stroke="black" paint-order="fill stroke markers" d=" M 380.5 130.5 L 390.5 130.5 L 390.5 130.5 A 20 20 0 0 1 390.5 170.5 L 380.5 170.5 L 380.5 130.5 Z" stroke-miterlimit="10" stroke-width="3" stroke-dasharray=""/><path fill="none" stroke="black" paint-order="fill stroke markers" d=" M 420 150 A 5 5 0 1 1 419.99999750000023 149.99500000083333" stroke-miterlimit="10" stroke-width="3" stroke-dasharray=""/><path fill="white" stroke="black" paint-order="fill stroke markers" d=" M 460.5 50.5 L 470.5 50.5 L 470.5 50.5 A 20 20 0 0 1 470.5 90.5 L 460.5 90.5 L 460.5 50.5 Z" stroke-miterlimit="10" stroke-width="3" stroke-dasharray=""/><path fill="none" stroke="black" paint-order="fill stroke markers" d=" M 500 70 A 5 5 0 1 1 499.99999750000023 69.99500000083333" stroke-miterlimit="10" stroke-width="3" stroke-dasharray=""/><path fill="white" stroke="black" paint-order="fill stroke markers" d=" M 460.5 190.5 L 470.5 190.5 L 470.5 190.5 A 20 20 0 0 1 470.5 230.5 L 460.5 230.5 L 460.5 190.5 Z" stroke-miterlimit="10" stroke-width="3" stroke-dasharray=""/><path fill="none" stroke="black" paint-order="fill stroke markers" d=" M 500 210 A 5 5 0 1 1 499.99999750000023 209.99500000083333" stroke-miterlimit="10" stroke-width="3" stroke-dasharray=""/><path fill="white" stroke="black" paint-order="fill stroke markers" d=" M 530.5 130.5 L 540.5 130.5 L 540.5 130.5 A 20 20 0 0 1 540.5 170.5 L 530.5 170.5 L 530.5 130.5 Z" stroke-miterlimit="10" stroke-width="3" stroke-dasharray=""/><path fill="none" stroke="black" paint-order="fill stroke markers" d=" M 570 150 A 5 5 0 1 1 569.9999975000002 149.99500000083333" stroke-miterlimit="10" stroke-width="3" stroke-dasharray=""/><path fill="white" stroke="black" paint-order="fill stroke markers" d=" M 530.5 240.5 L 540.5 240.5 L 540.5 240.5 A 20 20 0 0 1 540.5 280.5 L 530.5 280.5 L 530.5 240.5 Z" stroke-miterlimit="10" stroke-width="3" stroke-dasharray=""/><path fill="none" stroke="black" paint-order="fill stroke markers" d=" M 570 260 A 5 5 0 1 1 569.9999975000002 259.99500000083333" stroke-miterlimit="10" stroke-width="3" stroke-dasharray=""/><path fill="white" stroke="blue" paint-order="fill stroke markers" d=" M 580.5 140.5 L 600.5 140.5 L 600.5 160.5 L 580.5 160.5 L 580.5 140.5 Z" stroke-miterlimit="10" stroke-width="3" stroke-dasharray=""/><path fill="none" stroke="none"/><text fill="green" stroke="none" font-family="Raleway" font-size="20px" font-style="normal" font-weight="normal" text-decoration="normal" x="590" y="155" text-anchor="middle" dominant-baseline="alphabetic">0</text><path fill="white" stroke="blue" paint-order="fill stroke markers" d=" M 580.5 250.5 L 600.5 250.5 L 600.5 270.5 L 580.5 270.5 L 580.5 250.5 Z" stroke-miterlimit="10" stroke-width="3" stroke-dasharray=""/><path fill="none" stroke="none"/><text fill="green" stroke="none" font-family="Raleway" font-size="20px" font-style="normal" font-weight="normal" text-decoration="normal" x="590" y="265" text-anchor="middle" dominant-baseline="alphabetic">0</text><path fill="white" stroke="black" paint-order="fill stroke markers" d=" M 50.5 120.5 L 70.5 120.5 L 70.5 140.5 L 50.5 140.5 L 50.5 120.5 Z" stroke-miterlimit="10" stroke-width="3" stroke-dasharray=""/><path fill="none" stroke="none"/><path fill="none" stroke="none"/><text fill="green" stroke="none" font-family="Raleway" font-size="20px" font-style="normal" font-weight="normal" text-decoration="normal" x="60" y="135" text-anchor="middle" dominant-baseline="alphabetic">0</text><path fill="white" stroke="black" paint-order="fill stroke markers" d=" M 50.5 140.5 L 70.5 140.5 L 70.5 160.5 L 50.5 160.5 L 50.5 140.5 Z" stroke-miterlimit="10" stroke-width="3" stroke-dasharray=""/><path fill="none" stroke="none"/><path fill="none" stroke="none"/><text fill="green" stroke="none" font-family="Raleway" font-size="20px" font-style="normal" font-weight="normal" text-decoration="normal" x="60" y="155" text-anchor="middle" dominant-baseline="alphabetic">0</text><path fill="white" stroke="black" paint-order="fill stroke markers" d=" M 50.5 250.5 L 70.5 250.5 L 70.5 270.5 L 50.5 270.5 L 50.5 250.5 Z" stroke-miterlimit="10" stroke-width="3" stroke-dasharray=""/><path fill="none" stroke="none"/><path fill="none" stroke="none"/><text fill="green" stroke="none" font-family="Raleway" font-size="20px" font-style="normal" font-weight="normal" text-decoration="normal" x="60" y="265" text-anchor="middle" dominant-baseline="alphabetic">0</text><path fill="none" stroke="green" paint-order="fill stroke markers" d=" M 140 130.5 L 110 130.5" stroke-linecap="round" stroke-miterlimit="10" stroke-width="3" stroke-dasharray=""/><path fill="none" stroke="green" paint-order="fill stroke markers" d=" M 140 150.5 L 110 150.5" stroke-linecap="round" stroke-miterlimit="10" stroke-width="3" stroke-dasharray=""/><path fill="none" stroke="lightgreen" paint-order="fill stroke markers" d=" M 180 140.5 L 200 140.5" stroke-linecap="round" stroke-miterlimit="10" stroke-width="3" stroke-dasharray=""/><path fill="none" stroke="green" paint-order="fill stroke markers" d=" M 230 60.5 L 110 60.5" stroke-linecap="round" stroke-miterlimit="10" stroke-width="3" stroke-dasharray=""/><path fill="none" stroke="lightgreen" paint-order="fill stroke markers" d=" M 230 80.5 L 200 80.5" stroke-linecap="round" stroke-miterlimit="10" stroke-width="3" stroke-dasharray=""/><path fill="none" stroke="lightgreen" paint-order="fill stroke markers" d=" M 270 70.5 L 280 70.5" stroke-linecap="round" stroke-miterlimit="10" stroke-width="3" stroke-dasharray=""/><path fill="none" stroke="lightgreen" paint-order="fill stroke markers" d=" M 230 200.5 L 200 200.5" stroke-linecap="round" stroke-miterlimit="10" stroke-width="3" stroke-dasharray=""/><path fill="none" stroke="green" paint-order="fill stroke markers" d=" M 230 220.5 L 110 220.5" stroke-linecap="round" stroke-miterlimit="10" stroke-width="3" stroke-dasharray=""/><path fill="none" stroke="lightgreen" paint-order="fill stroke markers" d=" M 270 210.5 L 280 210.5" stroke-linecap="round" stroke-miterlimit="10" stroke-width="3" stroke-dasharray=""/><path fill="none" stroke="lightgreen" paint-order="fill stroke markers" d=" M 310 130.5 L 280 130.5" stroke-linecap="round" stroke-miterlimit="10" stroke-width="3" stroke-dasharray=""/><path fill="none" stroke="lightgreen" paint-order="fill stroke markers" d=" M 310 150.5 L 280 150.5" stroke-linecap="round" stroke-miterlimit="10" stroke-width="3" stroke-dasharray=""/><path fill="none" stroke="green" paint-order="fill stroke markers" d=" M 350 140.5 L 360 140.5" stroke-linecap="round" stroke-miterlimit="10" stroke-width="3" stroke-dasharray=""/><path fill="none" stroke="green" paint-order="fill stroke markers" d=" M 380 140.5 L 360 140.5" stroke-linecap="round" stroke-miterlimit="10" stroke-width="3" stroke-dasharray=""/><path fill="none" stroke="green" paint-order="fill stroke markers" d=" M 380 160.5 L 350 160.5" stroke-linecap="round" stroke-miterlimit="10" stroke-width="3" stroke-dasharray=""/><path fill="none" stroke="lightgreen" paint-order="fill stroke markers" d=" M 420 150.5 L 440 150.5" stroke-linecap="round" stroke-miterlimit="10" stroke-width="3" stroke-dasharray=""/><path fill="none" stroke="green" paint-order="fill stroke markers" d=" M 460 60.5 L 360 60.5" stroke-linecap="round" stroke-miterlimit="10" stroke-width="3" stroke-dasharray=""/><path fill="none" stroke="lightgreen" paint-order="fill stroke markers" d=" M 460 80.5 L 440 80.5" stroke-linecap="round" stroke-miterlimit="10" stroke-width="3" stroke-dasharray=""/><path fill="none" stroke="lightgreen" paint-order="fill stroke markers" d=" M 500 70.5 L 510 70.5" stroke-linecap="round" stroke-miterlimit="10" stroke-width="3" stroke-dasharray=""/><path fill="none" stroke="lightgreen" paint-order="fill stroke markers" d=" M 460 200.5 L 440 200.5" stroke-linecap="round" stroke-miterlimit="10" stroke-width="3" stroke-dasharray=""/><path fill="none" stroke="green" paint-order="fill stroke markers" d=" M 460 220.5 L 350 220.5" stroke-linecap="round" stroke-miterlimit="10" stroke-width="3" stroke-dasharray=""/><path fill="none" stroke="lightgreen" paint-order="fill stroke markers" d=" M 500 210.5 L 510 210.5" stroke-linecap="round" stroke-miterlimit="10" stroke-width="3" stroke-dasharray=""/><path fill="none" stroke="lightgreen" paint-order="fill stroke markers" d=" M 530 140.5 L 510 140.5" stroke-linecap="round" stroke-miterlimit="10" stroke-width="3" stroke-dasharray=""/><path fill="none" stroke="lightgreen" paint-order="fill stroke markers" d=" M 530 160.5 L 510 160.5" stroke-linecap="round" stroke-miterlimit="10" stroke-width="3" stroke-dasharray=""/><path fill="none" stroke="green" paint-order="fill stroke markers" d=" M 570 150.5 L 580 150.5" stroke-linecap="round" stroke-miterlimit="10" stroke-width="3" stroke-dasharray=""/><path fill="none" stroke="lightgreen" paint-order="fill stroke markers" d=" M 530 250.5 L 440 250.5" stroke-linecap="round" stroke-miterlimit="10" stroke-width="3" stroke-dasharray=""/><path fill="none" stroke="lightgreen" paint-order="fill stroke markers" d=" M 530 270.5 L 200 270.5" stroke-linecap="round" stroke-miterlimit="10" stroke-width="3" stroke-dasharray=""/><path fill="none" stroke="green" paint-order="fill stroke markers" d=" M 570 260.5 L 580 260.5" stroke-linecap="round" stroke-miterlimit="10" stroke-width="3" stroke-dasharray=""/><path fill="none" stroke="green" paint-order="fill stroke markers" d=" M 70 130.5 L 110 130.5" stroke-linecap="round" stroke-miterlimit="10" stroke-width="3" stroke-dasharray=""/><path fill="none" stroke="green" paint-order="fill stroke markers" d=" M 70 150.5 L 110 150.5" stroke-linecap="round" stroke-miterlimit="10" stroke-width="3" stroke-dasharray=""/><path fill="none" stroke="lightgreen" paint-order="fill stroke markers" d=" M 200.5 140 L 200.5 200" stroke-linecap="round" stroke-miterlimit="10" stroke-width="3" stroke-dasharray=""/><path fill="none" stroke="lightgreen" paint-order="fill stroke markers" d=" M 200.5 140 L 200.5 80" stroke-linecap="round" stroke-miterlimit="10" stroke-width="3" stroke-dasharray=""/><path fill="none" stroke="lightgreen" paint-order="fill stroke markers" d=" M 200.5 200 L 200.5 270" stroke-linecap="round" stroke-miterlimit="10" stroke-width="3" stroke-dasharray=""/><path fill="none" stroke="green" paint-order="fill stroke markers" d=" M 110.5 60 L 110.5 130" stroke-linecap="round" stroke-miterlimit="10" stroke-width="3" stroke-dasharray=""/><path fill="none" stroke="green" paint-order="fill stroke markers" d=" M 110.5 220 L 110.5 150" stroke-linecap="round" stroke-miterlimit="10" stroke-width="3" stroke-dasharray=""/><path fill="none" stroke="lightgreen" paint-order="fill stroke markers" d=" M 280.5 70 L 280.5 130" stroke-linecap="round" stroke-miterlimit="10" stroke-width="3" stroke-dasharray=""/><path fill="none" stroke="lightgreen" paint-order="fill stroke markers" d=" M 280.5 210 L 280.5 150" stroke-linecap="round" stroke-miterlimit="10" stroke-width="3" stroke-dasharray=""/><path fill="none" stroke="lightgreen" paint-order="fill stroke markers" d=" M 440.5 150 L 440.5 200" stroke-linecap="round" stroke-miterlimit="10" stroke-width="3" stroke-dasharray=""/><path fill="none" stroke="lightgreen" paint-order="fill stroke markers" d=" M 440.5 200 L 440.5 250" stroke-linecap="round" stroke-miterlimit="10" stroke-width="3" stroke-dasharray=""/><path fill="none" stroke="lightgreen" paint-order="fill stroke markers" d=" M 510.5 210 L 510.5 160" stroke-linecap="round" stroke-miterlimit="10" stroke-width="3" stroke-dasharray=""/><path fill="none" stroke="lightgreen" paint-order="fill stroke markers" d=" M 510.5 70 L 510.5 140" stroke-linecap="round" stroke-miterlimit="10" stroke-width="3" stroke-dasharray=""/><path fill="none" stroke="green" paint-order="fill stroke markers" d=" M 70 260.5 L 350 260.5" stroke-linecap="round" stroke-miterlimit="10" stroke-width="3" stroke-dasharray=""/><path fill="none" stroke="green" paint-order="fill stroke markers" d=" M 350.5 260 L 350.5 220" stroke-linecap="round" stroke-miterlimit="10" stroke-width="3" stroke-dasharray=""/><path fill="none" stroke="green" paint-order="fill stroke markers" d=" M 350.5 160 L 350.5 220" stroke-linecap="round" stroke-miterlimit="10" stroke-width="3" stroke-dasharray=""/><path fill="none" stroke="green" paint-order="fill stroke markers" d=" M 360.5 60 L 360.5 140" stroke-linecap="round" stroke-miterlimit="10" stroke-width="3" stroke-dasharray=""/><path fill="none" stroke="lightgreen" paint-order="fill stroke markers" d=" M 440.5 150 L 440.5 80" stroke-linecap="round" stroke-miterlimit="10" stroke-width="3" stroke-dasharray=""/><path fill="green" stroke="none" paint-order="stroke fill markers" d=" M 143 130 A 3 3 0 1 1 142.99999850000012 129.9970000005 Z"/><path fill="green" stroke="none" paint-order="stroke fill markers" d=" M 143 150 A 3 3 0 1 1 142.99999850000012 149.9970000005 Z"/><path fill="green" stroke="none" paint-order="stroke fill markers" d=" M 183 140 A 3 3 0 1 1 182.99999850000012 139.9970000005 Z"/><path fill="green" stroke="none" paint-order="stroke fill markers" d=" M 233 60 A 3 3 0 1 1 232.99999850000012 59.9970000005 Z"/><path fill="green" stroke="none" paint-order="stroke fill markers" d=" M 233 80 A 3 3 0 1 1 232.99999850000012 79.9970000005 Z"/><path fill="green" stroke="none" paint-order="stroke fill markers" d=" M 273 70 A 3 3 0 1 1 272.9999985000001 69.9970000005 Z"/><path fill="green" stroke="none" paint-order="stroke fill markers" d=" M 233 200 A 3 3 0 1 1 232.99999850000012 199.9970000005 Z"/><path fill="green" stroke="none" paint-order="stroke fill markers" d=" M 233 220 A 3 3 0 1 1 232.99999850000012 219.9970000005 Z"/><path fill="green" stroke="none" paint-order="stroke fill markers" d=" M 273 210 A 3 3 0 1 1 272.9999985000001 209.9970000005 Z"/><path fill="green" stroke="none" paint-order="stroke fill markers" d=" M 313 130 A 3 3 0 1 1 312.9999985000001 129.9970000005 Z"/><path fill="green" stroke="none" paint-order="stroke fill markers" d=" M 313 150 A 3 3 0 1 1 312.9999985000001 149.9970000005 Z"/><path fill="green" stroke="none" paint-order="stroke fill markers" d=" M 353 140 A 3 3 0 1 1 352.9999985000001 139.9970000005 Z"/><path fill="green" stroke="none" paint-order="stroke fill markers" d=" M 383 140 A 3 3 0 1 1 382.9999985000001 139.9970000005 Z"/><path fill="green" stroke="none" paint-order="stroke fill markers" d=" M 383 160 A 3 3 0 1 1 382.9999985000001 159.9970000005 Z"/><path fill="green" stroke="none" paint-order="stroke fill markers" d=" M 423 150 A 3 3 0 1 1 422.9999985000001 149.9970000005 Z"/><path fill="green" stroke="none" paint-order="stroke fill markers" d=" M 463 60 A 3 3 0 1 1 462.9999985000001 59.9970000005 Z"/><path fill="green" stroke="none" paint-order="stroke fill markers" d=" M 463 80 A 3 3 0 1 1 462.9999985000001 79.9970000005 Z"/><path fill="green" stroke="none" paint-order="stroke fill markers" d=" M 503 70 A 3 3 0 1 1 502.9999985000001 69.9970000005 Z"/><path fill="green" stroke="none" paint-order="stroke fill markers" d=" M 463 200 A 3 3 0 1 1 462.9999985000001 199.9970000005 Z"/><path fill="green" stroke="none" paint-order="stroke fill markers" d=" M 463 220 A 3 3 0 1 1 462.9999985000001 219.9970000005 Z"/><path fill="green" stroke="none" paint-order="stroke fill markers" d=" M 503 210 A 3 3 0 1 1 502.9999985000001 209.9970000005 Z"/><path fill="green" stroke="none" paint-order="stroke fill markers" d=" M 533 140 A 3 3 0 1 1 532.9999985000002 139.9970000005 Z"/><path fill="green" stroke="none" paint-order="stroke fill markers" d=" M 533 160 A 3 3 0 1 1 532.9999985000002 159.9970000005 Z"/><path fill="green" stroke="none" paint-order="stroke fill markers" d=" M 573 150 A 3 3 0 1 1 572.9999985000002 149.9970000005 Z"/><path fill="green" stroke="none" paint-order="stroke fill markers" d=" M 533 250 A 3 3 0 1 1 532.9999985000002 249.9970000005 Z"/><path fill="green" stroke="none" paint-order="stroke fill markers" d=" M 533 270 A 3 3 0 1 1 532.9999985000002 269.9970000005 Z"/><path fill="green" stroke="none" paint-order="stroke fill markers" d=" M 573 260 A 3 3 0 1 1 572.9999985000002 259.9970000005 Z"/><path fill="green" stroke="none" paint-order="stroke fill markers" d=" M 73 130 A 3 3 0 1 1 72.99999850000013 129.9970000005 Z"/><path fill="green" stroke="none" paint-order="stroke fill markers" d=" M 73 150 A 3 3 0 1 1 72.99999850000013 149.9970000005 Z"/><path fill="lightgreen" stroke="none" paint-order="stroke fill markers" d=" M 203 140 A 3 3 0 1 1 202.99999850000012 139.9970000005 Z"/><path fill="lightgreen" stroke="none" paint-order="stroke fill markers" d=" M 203 200 A 3 3 0 1 1 202.99999850000012 199.9970000005 Z"/><path fill="lightgreen" stroke="none" paint-order="stroke fill markers" d=" M 203 80 A 3 3 0 1 1 202.99999850000012 79.9970000005 Z"/><path fill="green" stroke="none" paint-order="stroke fill markers" d=" M 113 60 A 3 3 0 1 1 112.99999850000013 59.9970000005 Z"/><path fill="green" stroke="none" paint-order="stroke fill markers" d=" M 113 130 A 3 3 0 1 1 112.99999850000013 129.9970000005 Z"/><path fill="green" stroke="none" paint-order="stroke fill markers" d=" M 113 220 A 3 3 0 1 1 112.99999850000013 219.9970000005 Z"/><path fill="green" stroke="none" paint-order="stroke fill markers" d=" M 113 150 A 3 3 0 1 1 112.99999850000013 149.9970000005 Z"/><path fill="lightgreen" stroke="none" paint-order="stroke fill markers" d=" M 283 70 A 3 3 0 1 1 282.9999985000001 69.9970000005 Z"/><path fill="lightgreen" stroke="none" paint-order="stroke fill markers" d=" M 283 130 A 3 3 0 1 1 282.9999985000001 129.9970000005 Z"/><path fill="lightgreen" stroke="none" paint-order="stroke fill markers" d=" M 283 210 A 3 3 0 1 1 282.9999985000001 209.9970000005 Z"/><path fill="lightgreen" stroke="none" paint-order="stroke fill markers" d=" M 283 150 A 3 3 0 1 1 282.9999985000001 149.9970000005 Z"/><path fill="lightgreen" stroke="none" paint-order="stroke fill markers" d=" M 443 150 A 3 3 0 1 1 442.9999985000001 149.9970000005 Z"/><path fill="lightgreen" stroke="none" paint-order="stroke fill markers" d=" M 443 80 A 3 3 0 1 1 442.9999985000001 79.9970000005 Z"/><path fill="lightgreen" stroke="none" paint-order="stroke fill markers" d=" M 443 200 A 3 3 0 1 1 442.9999985000001 199.9970000005 Z"/><path fill="lightgreen" stroke="none" paint-order="stroke fill markers" d=" M 513 210 A 3 3 0 1 1 512.9999985000002 209.9970000005 Z"/><path fill="lightgreen" stroke="none" paint-order="stroke fill markers" d=" M 513 160 A 3 3 0 1 1 512.9999985000002 159.9970000005 Z"/><path fill="lightgreen" stroke="none" paint-order="stroke fill markers" d=" M 513 70 A 3 3 0 1 1 512.9999985000002 69.9970000005 Z"/><path fill="lightgreen" stroke="none" paint-order="stroke fill markers" d=" M 513 140 A 3 3 0 1 1 512.9999985000002 139.9970000005 Z"/><path fill="lightgreen" stroke="none" paint-order="stroke fill markers" d=" M 443 250 A 3 3 0 1 1 442.9999985000001 249.9970000005 Z"/><path fill="green" stroke="none" paint-order="stroke fill markers" d=" M 73 260 A 3 3 0 1 1 72.99999850000013 259.9970000005 Z"/><path fill="green" stroke="none" paint-order="stroke fill markers" d=" M 353 260 A 3 3 0 1 1 352.9999985000001 259.9970000005 Z"/><path fill="green" stroke="none" paint-order="stroke fill markers" d=" M 353 160 A 3 3 0 1 1 352.9999985000001 159.9970000005 Z"/><path fill="green" stroke="none" paint-order="stroke fill markers" d=" M 353 220 A 3 3 0 1 1 352.9999985000001 219.9970000005 Z"/><path fill="lightgreen" stroke="none" paint-order="stroke fill markers" d=" M 203 270 A 3 3 0 1 1 202.99999850000012 269.9970000005 Z"/><path fill="green" stroke="none" paint-order="stroke fill markers" d=" M 583 150 A 3 3 0 1 1 582.9999985000002 149.9970000005 Z"/><path fill="green" stroke="none" paint-order="stroke fill markers" d=" M 583 260 A 3 3 0 1 1 582.9999985000002 259.9970000005 Z"/><path fill="green" stroke="none" paint-order="stroke fill markers" d=" M 363 60 A 3 3 0 1 1 362.9999985000001 59.9970000005 Z"/><path fill="green" stroke="none" paint-order="stroke fill markers" d=" M 363 140 A 3 3 0 1 1 362.9999985000001 139.9970000005 Z"/></g></svg>