<svg xmlns="http://www.w3.org/2000/svg" width="300" height="200" viewBox="109.7280044555664 70.43000030517578 55.37200164794922 30.479995727539062"><desc>
    Schematic generated with KiCad and modified in svgviewer.dev by MaxClerkwell for Electro-Noise Experiment at Ruhr-Universität Bochum.
  </desc><g style="fill:#000;fill-opacity:1;stroke:#000;stroke-opacity:1;stroke-linecap:round;stroke-linejoin:round"/><g style="fill:none;stroke:#840000;stroke-width:.1524;stroke-opacity:1;stroke-linecap:round;stroke-linejoin:round"><path style="stroke:#840000;stroke-width:.1524;stroke-opacity:1;stroke-linecap:round;stroke-linejoin:round;fill:none" d="M162.56 81.28h2.54"/><path style="fill:#840000;fill-opacity:1;stroke:#840000;stroke-width:.1524;stroke-opacity:1;stroke-linecap:round;stroke-linejoin:round;fill-rule:evenodd" d="M163.83 82.042v-1.524l1.27.762Z"/></g><rect x="123.19" y="90.424" width="5.08" height="2.032" rx="0" style="fill:none;stroke:#840000;stroke-width:.254;stroke-opacity:1;stroke-linecap:round;stroke-linejoin:round"/><path d="M123.19 91.44h-1.27m6.35 0h1.27" style="fill:none;stroke:#840000;stroke-width:.1524;stroke-opacity:1;stroke-linecap:round;stroke-linejoin:round"/><g style="fill:none;stroke:#006464;stroke-width:.1524;stroke-opacity:1;stroke-linecap:round;stroke-linejoin:round"><g class="stroked-text"><desc>
        R1
      </desc><path d="m125.518 85.67-.423-.605m-.302.605V84.4m0 0h.483m0 0 .121.06m0 0 .06.06m.001 0 .06.121m0 0v.182m0 0-.06.12m0 .001-.06.06m-.001 0-.12.06m-.001.001h-.483m1.935.605h-.726m.363 0V84.4m0 0-.121.18m0 0-.121.122m0 0-.12.06"/></g><g class="stroked-text"><desc>
        200
      </desc><path d="m124.158 87.06.06-.06m0 0 .121-.06m0 0h.302m0 0 .121.06m0 0 .06.06m.001 0 .06.121m0 0v.121m0 0-.06.182m0 0-.726.725m0 .001h.786m.787-1.27h.12m0 0 .121.06m0 0 .06.06m.001 0 .06.121m0 0 .06.242m.001 0v.303m0 0-.06.242m-.001 0-.06.12m0 .001-.06.06m-.001 0-.12.06m-.001.001h-.12m0 0-.121-.061m0 0-.061-.06m0 0-.06-.121m0 0-.06-.242m-.001 0v-.303m0 0 .06-.242m.001 0 .06-.12m0-.001.06-.06m.001 0 .12-.06m1.21 0h.12m.001 0 .12.06m0 0 .061.06m0 0 .06.121m.001 0 .06.242m0 0v.303m0 0-.06.242m0 0-.06.12m-.001.001-.06.06m-.001 0-.12.06m0 .001h-.121m0 0-.121-.061m0 0-.06-.06m0 0-.061-.121m0 0-.06-.242m0 0v-.303m0 0 .06-.242m0 0 .06-.12m.001-.001.06-.06m0 0 .12-.06"/></g></g><g style="fill:none;stroke:#840000;stroke-width:.254;stroke-opacity:1;stroke-linecap:round;stroke-linejoin:round"><rect x="110.744" y="82.55" width="2.032" height="5.08" rx="0"/><path style="stroke:#840000;stroke-width:.1524;stroke-opacity:1;stroke-linecap:round;stroke-linejoin:round;fill:none" d="M114.3 83.566V82.55h-1.016 1.016l-4.572 4.572"/></g><path d="M111.76 82.55v-1.27m0 6.35v1.27" style="fill:none;stroke:#840000;stroke-width:.1524;stroke-opacity:1;stroke-linecap:round;stroke-linejoin:round"/><g style="fill:none;stroke:#006464;stroke-width:.1524;stroke-opacity:1;stroke-linecap:round;stroke-linejoin:round"><g class="stroked-text"><desc>
        Rin
      </desc><path d="m115.693 86.432-.423-.605m-.302.605v-1.27m0 0h.483m0 0 .121.06m0 0 .06.06m.001.001.06.12m0 0v.182m0 0-.06.12m0 .001-.06.06m-.001 0-.12.06m-.001.001h-.483m1.27.605v-.847m0-.423-.06.06m-.001 0 .06.06m.001.001.06-.061m0 0-.06-.06m0 0v.12m.604.303v.847m0-.726.06-.06m.001-.001.12-.06m.001 0h.181m0 0 .121.06m0 0 .06.121m.001 0v.665"/></g><path style="stroke:#840000;stroke-width:.1524;stroke-opacity:1;stroke-linecap:round;stroke-linejoin:round;fill:none" d="M111.76 95.25v1.27h1.27l-1.27 1.27-1.27-1.27h1.27"/></g><g style="fill:none;stroke:#006464;stroke-width:.1524;stroke-opacity:1;stroke-linecap:round;stroke-linejoin:round"><g class="stroked-text"><desc>
        GND
      </desc><path d="m110.792 99.7-.12-.06m-.001 0h-.181m0 0-.181.06m0 0-.121.121m0 0-.06.12m-.001.001-.06.242m0 0v.181m0 0 .06.242m0 0 .06.121m.001 0 .12.121m.001.001.181.06m0 0h.12m0 0 .182-.06m0 0 .06-.061m.001 0v-.424m0 0h-.242m.786.545v-1.27m0 0 .726 1.27m0 0v-1.27m.605 1.27v-1.27m0 0h.302m0 0 .181.06m0 0 .121.121m0 0 .06.12m.001.001.06.242m0 0v.181m0 0-.06.242m0 0-.06.121m-.001 0-.12.121m-.001.001-.181.06m0 0h-.302"/></g><path style="stroke:#840000;stroke-width:.1524;stroke-opacity:1;stroke-linecap:round;stroke-linejoin:round;fill:none" d="M118.11 95.25v1.27h1.27l-1.27 1.27-1.27-1.27h1.27"/></g><g class="stroked-text" style="fill:none;stroke:#006464;stroke-width:.1524;stroke-opacity:1;stroke-linecap:round;stroke-linejoin:round"><desc>
      GND
    </desc><path d="m117.142 99.7-.12-.06m-.001 0h-.181m0 0-.181.06m0 0-.121.121m0 0-.06.12m-.001.001-.06.242m0 0v.181m0 0 .06.242m0 0 .06.121m.001 0 .12.121m.001.001.181.06m0 0h.12m0 0 .182-.06m0 0 .06-.061m.001 0v-.424m0 0h-.242m.786.545v-1.27m0 0 .726 1.27m0 0v-1.27m.605 1.27v-1.27m0 0h.302m0 0 .181.06m0 0 .121.121m0 0 .06.12m.001.001.06.242m0 0v.181m0 0-.06.242m0 0-.06.121m-.001 0-.12.121m-.001.001-.181.06m0 0h-.302"/></g><rect x="143.51" y="90.424" width="5.08" height="2.032" rx="0" style="fill:none;stroke:#840000;stroke-width:.254;stroke-opacity:1;stroke-linecap:round;stroke-linejoin:round"/><path d="M143.51 91.44h-1.27m6.35 0h1.27" style="fill:none;stroke:#840000;stroke-width:.1524;stroke-opacity:1;stroke-linecap:round;stroke-linejoin:round"/><g style="fill:none;stroke:#006464;stroke-width:.1524;stroke-opacity:1;stroke-linecap:round;stroke-linejoin:round"><g class="stroked-text"><desc>
        Rf
      </desc><path d="m146.08 85.67-.423-.605m-.303.605V84.4m0 0h.484m0 0 .121.06m.001 0 .06.06m0 0 .06.121m0 0v.182m0 0-.06.12m0 .001-.06.06m0 0-.122.06m0 .001h-.484m1.089-.242h.484m-.303.847v-1.09m0 0 .06-.12m.001 0 .12-.06m.001 0h.12"/></g><g class="stroked-text"><desc>
        1k
      </desc><path d="M145.899 88.21h-.726m.363 0v-1.27m0 0-.121.18m0 0-.121.122m0 0-.12.06m1.269.908v-1.27m.121.786.363.483m0-.846-.484.484"/></g><path style="fill:#ffffc2;fill-opacity:1;stroke:none;fill-rule:evenodd" d="m146.05 81.28-10.16-5.08v10.16Z" stroke="none"/><path style="stroke:#840000;stroke-width:.254;stroke-opacity:1;stroke-linecap:round;stroke-linejoin:round;fill:none" d="m146.05 81.28-10.16-5.08v10.16Z"/></g><path d="M135.89 78.74h-2.54" style="fill:none;stroke:#840000;stroke-width:.1524;stroke-opacity:1;stroke-linecap:round;stroke-linejoin:round"/><g class="stroked-text" style="fill:none;stroke:#006464;stroke-width:.1524;stroke-opacity:1;stroke-linecap:round;stroke-linejoin:round"><desc>
      +
    </desc><path d="M136.42 78.836h.967m-.484.484v-.968"/></g><g class="stroked-text" style="fill:none;stroke:#a90000;stroke-width:.1524;stroke-opacity:1;stroke-linecap:round;stroke-linejoin:round"><desc>
      3
    </desc><path d="M134.197 77.053h.786m0 0-.423.483m0 0h.181m0 0 .12.06m.001.001.06.06m0 0 .06.121m.001 0v.303m0-.001-.06.122m-.001 0-.06.06m0 0-.121.06m0 .001h-.363m0 0-.12-.06m-.001-.001-.06-.06"/></g><path d="M135.89 83.82h-2.54" style="fill:none;stroke:#840000;stroke-width:.1524;stroke-opacity:1;stroke-linecap:round;stroke-linejoin:round"/><g class="stroked-text" style="fill:none;stroke:#006464;stroke-width:.1524;stroke-opacity:1;stroke-linecap:round;stroke-linejoin:round"><desc>
      -
    </desc><path d="M136.42 83.916h.967"/></g><g class="stroked-text" style="fill:none;stroke:#a90000;stroke-width:.1524;stroke-opacity:1;stroke-linecap:round;stroke-linejoin:round"><desc>
      2
    </desc><path d="m134.257 82.254.06-.061m.001 0 .12-.06m.001 0h.302m0 0 .12.06m.001 0 .06.06m0 .001.06.12m.001 0v.121m0 0-.06.182m-.001 0-.725.725m0 .001h.786"/></g><path d="M146.05 81.28h2.54" style="fill:none;stroke:#840000;stroke-width:.1524;stroke-opacity:1;stroke-linecap:round;stroke-linejoin:round"/><g class="stroked-text" style="fill:none;stroke:#a90000;stroke-width:.1524;stroke-opacity:1;stroke-linecap:round;stroke-linejoin:round"><desc>
      1
    </desc><path d="M147.683 80.863h-.726m.363 0v-1.27m0 0-.12.181m0 0-.122.12m0 .001-.12.06"/></g><g style="fill:none;stroke:#006464;stroke-width:.1524;stroke-opacity:1;stroke-linecap:round;stroke-linejoin:round"><g class="stroked-text"><desc>
        U1A
      </desc><path d="M139.458 70.43v1.028m0 0 .06.12m.001.001.06.06m0 .001.12.06m.001 0h.242m0 0 .12-.06m.001 0 .06-.061m0 0 .06-.121m.001 0V70.43m1.27 1.27h-.726m.362 0v-1.27m0 0-.12.181m0 0-.121.12m0 .001-.12.06m1.209.545h.604m-.725.363.423-1.27m0 0 .423 1.27"/></g><g class="stroked-text"><desc>
        OP-AMP
      </desc><path d="M137.523 72.97h.242m0 0 .12.06m.001 0 .12.121m.001 0 .06.242m0 0v.423m0 0-.06.242m0 0-.121.121m0 .001-.121.06m0 0h-.242m0 0-.121-.06m0 0-.121-.122m-.001 0-.06-.242m0 0v-.423m0 0 .06-.242m0 0 .122-.121m0 0 .12-.06m1.089 1.27v-1.27m0 0h.484m0 0 .121.06m0 0 .06.06m.001 0 .06.121m0 0v.182m0 0-.06.12m0 .001-.06.06m-.001 0-.12.06m-.001.001h-.484m1.27.121h.968m.544.121h.605m-.726.363.424-1.27m0 0 .423 1.27m.423 0v-1.27m0 0 .424.907m0 0 .423-.907m.001 0v1.27m.604 0v-1.27m0 0h.484m0 0 .12.06m.001 0 .06.06m.001 0 .06.121m0 0v.182m0 0-.06.12m0 .001-.061.06m0 0-.121.06m0 .001h-.484"/></g></g><path d="M148.59 81.28h6.35m0 10.16h-5.08m5.08-10.16v10.16m0-10.16h7.62m-50.8 0v-2.54m20.32 5.08v7.62m-20.32-12.7h21.59M111.76 88.9v6.35m10.16-3.81h-3.81m0 0v3.81m11.43-3.81h2.54m0 0h10.16m-8.89-7.62h-1.27" style="fill:none;stroke:#009600;stroke-width:.1524;stroke-opacity:1;stroke-linecap:round;stroke-linejoin:round"/><g style="fill:none;stroke:#006464;stroke-width:.1524;stroke-opacity:1;stroke-linecap:round;stroke-linejoin:round"><g class="stroked-text"><desc>
        Rf
      </desc><path d="m146.08 85.67-.423-.605m-.303.605V84.4m0 0h.484m0 0 .121.06m.001 0 .06.06m0 0 .06.121m0 0v.182m0 0-.06.12m0 .001-.06.06m0 0-.122.06m0 .001h-.484m1.089-.242h.484m-.303.847v-1.09m0 0 .06-.12m.001 0 .12-.06m.001 0h.12"/></g><g class="stroked-text"><desc>
        1k
      </desc><path d="M145.899 88.21h-.726m.363 0v-1.27m0 0-.121.18m0 0-.121.122m0 0-.12.06m1.269.908v-1.27m.121.786.363.483m0-.846-.484.484"/></g></g><path d="M143.51 91.44h-1.27m6.35 0h1.27" style="fill:none;stroke:#840000;stroke-width:.1524;stroke-opacity:1;stroke-linecap:round;stroke-linejoin:round"/><g style="fill:none;stroke:#006464;stroke-width:.1524;stroke-opacity:1;stroke-linecap:round;stroke-linejoin:round"><g class="stroked-text"><desc>
        U1A
      </desc><path d="M139.458 70.43v1.028m0 0 .06.12m.001.001.06.06m0 .001.12.06m.001 0h.242m0 0 .12-.06m.001 0 .06-.061m0 0 .06-.121m.001 0V70.43m1.27 1.27h-.726m.362 0v-1.27m0 0-.12.181m0 0-.121.12m0 .001-.12.06m1.209.545h.604m-.725.363.423-1.27m0 0 .423 1.27"/></g><g class="stroked-text"><desc>
        OP-AMP
      </desc><path d="M137.523 72.97h.242m0 0 .12.06m.001 0 .12.121m.001 0 .06.242m0 0v.423m0 0-.06.242m0 0-.121.121m0 .001-.121.06m0 0h-.242m0 0-.121-.06m0 0-.121-.122m-.001 0-.06-.242m0 0v-.423m0 0 .06-.242m0 0 .122-.121m0 0 .12-.06m1.089 1.27v-1.27m0 0h.484m0 0 .121.06m0 0 .06.06m.001 0 .06.121m0 0v.182m0 0-.06.12m0 .001-.06.06m-.001 0-.12.06m-.001.001h-.484m1.27.121h.968m.544.121h.605m-.726.363.424-1.27m0 0 .423 1.27m.423 0v-1.27m0 0 .424.907m0 0 .423-.907m.001 0v1.27m.604 0v-1.27m0 0h.484m0 0 .12.06m.001 0 .06.06m.001 0 .06.121m0 0v.182m0 0-.06.12m0 .001-.061.06m0 0-.121.06m0 .001h-.484"/></g></g><path d="M135.89 78.74h-2.54" style="fill:none;stroke:#840000;stroke-width:.1524;stroke-opacity:1;stroke-linecap:round;stroke-linejoin:round"/><g class="stroked-text" style="fill:none;stroke:#006464;stroke-width:.1524;stroke-opacity:1;stroke-linecap:round;stroke-linejoin:round"><desc>
      +
    </desc><path d="M136.42 78.836h.967m-.484.484v-.968"/></g><g class="stroked-text" style="fill:none;stroke:#a90000;stroke-width:.1524;stroke-opacity:1;stroke-linecap:round;stroke-linejoin:round"><desc>
      3
    </desc><path d="M134.197 77.053h.786m0 0-.423.483m0 0h.181m0 0 .12.06m.001.001.06.06m0 0 .06.121m.001 0v.303m0-.001-.06.122m-.001 0-.06.06m0 0-.121.06m0 .001h-.363m0 0-.12-.06m-.001-.001-.06-.06"/></g><path d="M135.89 83.82h-2.54" style="fill:none;stroke:#840000;stroke-width:.1524;stroke-opacity:1;stroke-linecap:round;stroke-linejoin:round"/><g class="stroked-text" style="fill:none;stroke:#006464;stroke-width:.1524;stroke-opacity:1;stroke-linecap:round;stroke-linejoin:round"><desc>
      -
    </desc><path d="M136.42 83.916h.967"/></g><g class="stroked-text" style="fill:none;stroke:#a90000;stroke-width:.1524;stroke-opacity:1;stroke-linecap:round;stroke-linejoin:round"><desc>
      2
    </desc><path d="m134.257 82.254.06-.061m.001 0 .12-.06m.001 0h.302m0 0 .12.06m.001 0 .06.06m0 .001.06.12m.001 0v.121m0 0-.06.182m-.001 0-.725.725m0 .001h.786"/></g><path d="M146.05 81.28h2.54" style="fill:none;stroke:#840000;stroke-width:.1524;stroke-opacity:1;stroke-linecap:round;stroke-linejoin:round"/><g class="stroked-text" style="fill:none;stroke:#a90000;stroke-width:.1524;stroke-opacity:1;stroke-linecap:round;stroke-linejoin:round"><desc>
      1
    </desc><path d="M147.683 80.863h-.726m.363 0v-1.27m0 0-.12.181m0 0-.122.12m0 .001-.12.06"/></g><g style="fill:#009600;fill-opacity:1;stroke:#009600;stroke-width:.1524;stroke-opacity:1;stroke-linecap:round;stroke-linejoin:round"><circle cx="154.94" cy="81.28" r=".457"/><circle cx="132.08" cy="91.44" r=".457"/></g></svg>